<?xml version="1.0" encoding="utf-8"?>
<!-- Generator: Adobe Illustrator 21.1.0, SVG Export Plug-In . SVG Version: 6.00 Build 0)  -->
<svg version="1.1" id="Layer_1" xmlns="http://www.w3.org/2000/svg" xmlns:xlink="http://www.w3.org/1999/xlink" x="0px" y="0px"
	 viewBox="0 0 232 36" style="enable-background:new 0 0 232 36;" xml:space="preserve">
<style type="text/css">
	.st0{fill:#374B5E;}
	.st1{fill:#3D2C2B;}
</style>
<path class="st0" d="M12,22.9c0,0.4-0.3,0.8-0.8,0.8s-0.8-0.3-0.8-0.8c0-0.4,0.3-0.8,0.8-0.8S12,22.4,12,22.9z M18.4,22.1
	c-0.4,0-0.8,0.3-0.8,0.8c0,0.4,0.3,0.8,0.8,0.8c0.4,0,0.8-0.3,0.8-0.8C19.2,22.4,18.8,22.1,18.4,22.1z M24.4,22.7
	c0,0-0.2-0.1-0.6-0.2c-0.5,2.7-2.2,5-4.5,6.3c2.3,1.5,3.9,4.1,3.9,7.1h-0.6c0-2.9-1.6-5.5-3.9-6.8c-1.2,0.5-2.5,0.9-3.9,0.9
	s-2.7-0.3-3.9-0.9C8.6,30.5,7,33.1,7,36H6.4c0-3,1.5-5.6,3.9-7.1c-2.8-1.6-4.7-4.6-4.7-8c0-0.3,0-0.5,0-0.8c-1.4,0.1-2.4,0-2.4,0
	l1.1-0.9c-1.3-0.2-2.1-1.6-2.1-1.6c2.4,0.5,2.6-0.9,2.8-1.9C5.4,15,6,13.6,6.5,13c5.1-6.2,11.7-1.9,11.7-1.9S26.2,10.1,24.4,22.7z
	 M23.2,22.4c-1.8-0.6-5.2-2.2-5.6-5.4c-2.8,3.2-6.7,2.6-6.7,2.6c0.2,0,0.9-0.6,1.7-1.2c-1.9,1.1-4.4,1.5-6.3,1.7c0,0.3,0,0.5,0,0.8
	c0,3.3,1.9,6.2,4.7,7.6c0.2,0.1,0.5,0.2,0.7,0.3c1,0.4,2.1,0.6,3.2,0.6c1.1,0,2.2-0.2,3.2-0.6c0.2-0.1,0.5-0.2,0.7-0.3
	C21,27.3,22.7,25,23.2,22.4z M20.6,5.3l-2.5,0l-0.9,1l3.6-0.1L20.6,5.3z M21,7.9L15.8,8l-0.9,1l6.4-0.1L21,7.9z M20.3,4.1l-1.1,0
	l-0.9,1l2.2,0L20.3,4.1z M20.8,6.6l-3.9,0.1l-0.9,1l5-0.1L20.8,6.6z M15.3,9.3l3.4,0.9l2.8,0l-0.2-1L15.3,9.3z M21.6,11l-0.1-0.6
	l-1.9,0L21.6,11z M19.5,3.8l0.8,0l-0.1-0.7L19.5,3.8z M19.5,2.5l0.3-0.1l-0.2,0.3c-0.1,0.1,0,0.2,0.1,0.3C19.8,3,20,3,20,2.9
	l0.2-0.3l0.1,0.3c0,0.1,0.1,0.2,0.2,0.2c0,0,0,0,0,0c0,0,0,0,0,0c0.1,0,0.2-0.1,0.2-0.2l-0.1-0.3l0.3,0.2c0.1,0.1,0.2,0,0.3-0.1
	c0.1-0.1,0-0.2-0.1-0.3l-0.3-0.2l0.3-0.1c0.1,0,0.2-0.1,0.2-0.2c0-0.1-0.1-0.2-0.2-0.2l-0.3,0.1l0.2-0.3c0.1-0.1,0-0.2-0.1-0.3
	c-0.1-0.1-0.2,0-0.3,0.1l-0.2,0.3l-0.1-0.3c0-0.1-0.1-0.2-0.2-0.2c0,0,0,0,0,0c0,0,0,0,0,0c-0.1,0-0.2,0.1-0.2,0.2L20,1.7l-0.3-0.2
	c-0.1-0.1-0.2,0-0.3,0.1c-0.1,0.1,0,0.2,0.1,0.3L19.8,2l-0.3,0.1c-0.1,0-0.2,0.1-0.2,0.2C19.3,2.4,19.4,2.5,19.5,2.5z"/>
<g>
	<path class="st1" d="M44.1,19l-0.7,6.2h1.7v3.3h-7.3v-3.3h1.7l3-20.8h-1.9V1.1h10.2v3.3h-1.9l3,20.8h1.7v3.3h-7.3v-3.3h1.7L47.4,19
		H44.1z M44.4,15.7h2.8L46,3.4h-0.4L44.4,15.7z"/>
	<path class="st1" d="M62.9,21.5l3.1,1.3c-0.1,2-0.5,3.5-1.4,4.5c-0.9,1.1-2.1,1.6-3.5,1.6c-2,0-3.4-0.8-4.2-2.3
		c-0.8-1.5-1.3-4.1-1.3-7.7c0-3.4,0.4-5.9,1.1-7.5c0.7-1.5,1.8-2.3,3.4-2.3c1.2,0,2.1,0.6,2.8,1.8h0.1V9.4H66v6.9h-3.2
		c0-1.5-0.1-2.6-0.4-3.2c-0.3-0.6-0.8-0.9-1.4-0.9c-0.7,0-1.2,0.4-1.4,1.2c-0.2,0.8-0.4,2.2-0.4,4.2v2.9c0,2,0.1,3.4,0.4,4.2
		c0.3,0.8,0.8,1.2,1.4,1.2c0.7,0,1.2-0.3,1.5-0.9C62.8,24.3,62.9,23.2,62.9,21.5z"/>
	<path class="st1" d="M75.8,21.5l3.1,1.3c-0.1,2-0.5,3.5-1.4,4.5c-0.9,1.1-2.1,1.6-3.5,1.6c-2,0-3.4-0.8-4.2-2.3
		c-0.8-1.5-1.3-4.1-1.3-7.7c0-3.4,0.4-5.9,1.1-7.5c0.7-1.5,1.8-2.3,3.4-2.3c1.2,0,2.1,0.6,2.8,1.8h0.1V9.4h3.2v6.9h-3.2
		c0-1.5-0.1-2.6-0.4-3.2c-0.3-0.6-0.8-0.9-1.4-0.9c-0.7,0-1.2,0.4-1.4,1.2c-0.2,0.8-0.4,2.2-0.4,4.2v2.9c0,2,0.1,3.4,0.4,4.2
		c0.3,0.8,0.8,1.2,1.4,1.2c0.7,0,1.2-0.3,1.5-0.9C75.6,24.3,75.8,23.2,75.8,21.5z"/>
	<path class="st1" d="M88.4,22.7l3,1.1c-0.4,1.6-1.1,2.9-1.9,3.8c-0.9,0.9-1.9,1.3-3,1.3c-1.8,0-3.2-0.8-4-2.4
		c-0.8-1.6-1.3-4.1-1.3-7.5c0-3.4,0.4-6,1.3-7.7c0.8-1.7,2.2-2.5,4-2.5c1.5,0,2.7,0.7,3.6,2.1c0.9,1.4,1.4,3.4,1.4,6v2.9h-6.7v0.8
		c0,1.7,0.1,3,0.4,3.8c0.3,0.8,0.7,1.2,1.3,1.2C87.6,25.8,88.2,24.8,88.4,22.7z M84.8,17.2H88v-1.7c0-2.4-0.5-3.6-1.6-3.6
		c-0.6,0-1,0.4-1.3,1.1c-0.2,0.7-0.3,1.8-0.3,3.4V17.2z"/>
	<path class="st1" d="M93.3,9.4h5.1v1.9h0.1c0.7-1.4,1.7-2.2,2.8-2.2c1.5,0,2.6,0.8,3.3,2.5c0.7,1.7,1.1,4.3,1.1,7.8
		c0,3.1-0.3,5.4-0.9,7c-0.6,1.6-1.7,2.4-3.3,2.4c-1.2,0-2.1-0.6-2.9-1.7h-0.1v4.6h1.9V35h-6.9v-3.2h1.6V12.5h-1.6V9.4z M98.4,18.5v3
		c0,1.6,0.1,2.7,0.4,3.4c0.3,0.7,0.8,1,1.4,1c0.7,0,1.2-0.4,1.5-1.2c0.2-0.8,0.3-2,0.3-3.7v-2.7c0-2.2-0.1-3.8-0.4-4.7
		c-0.2-0.9-0.7-1.4-1.4-1.4c-0.7,0-1.2,0.5-1.5,1.5C98.5,14.9,98.4,16.4,98.4,18.5z"/>
	<path class="st1" d="M112.4,12.5v11.2c0,1.3,0.5,1.9,1.5,1.9c0.4,0,0.8-0.1,1.4-0.3v3c-0.8,0.3-1.7,0.4-2.7,0.4
		c-1.3,0-2.2-0.4-2.8-1.2c-0.6-0.8-0.9-2-0.9-3.8V12.5h-1.7V9.4h1.7V6.3c1.2-0.7,2.3-1.6,3.4-2.5v5.6h2.3v3.2H112.4z"/>
	<path class="st1" d="M129.5,25.3v3.2h-4.9v-1.6h-0.1c-0.8,1.2-1.8,1.9-3.1,1.9c-1.2,0-2.2-0.5-2.9-1.6c-0.8-1.1-1.1-2.5-1.1-4.2
		c0-1.9,0.4-3.4,1.3-4.5c0.8-1,1.9-1.6,3.3-1.6c1.1,0,2,0.4,2.7,1.3v-3.3c0-1.3-0.2-2.1-0.5-2.4c-0.3-0.3-0.7-0.5-1.3-0.5
		c-1.1,0-1.8,0.8-1.9,2.5l-3.2-0.9c0.2-1.4,0.8-2.6,1.7-3.4c0.9-0.8,2.1-1.2,3.4-1.2c1.5,0,2.7,0.5,3.6,1.4c1,0.9,1.4,2.2,1.4,3.9
		v11.1H129.5z M124.6,24.7v-4.2c-0.5-0.6-1.1-0.9-1.7-0.9c-1.3,0-1.9,1-1.9,3.1c0,2,0.6,3,1.9,3C123.5,25.7,124,25.4,124.6,24.7z"/>
	<path class="st1" d="M131.1,28.5v-3.2h1.6V4.3h-1.6V1.1h5.1v9.6h0.1c0.8-1.1,1.8-1.7,2.9-1.7c1.5,0,2.6,0.8,3.3,2.4
		c0.7,1.6,1,4.2,1,7.9c0,3.1-0.4,5.4-1.1,7c-0.7,1.6-1.8,2.4-3.2,2.4c-1.2,0-2.1-0.7-2.9-2.1h-0.1v1.9H131.1z M136.2,15.9v5
		c0,1.6,0.1,2.7,0.4,3.5c0.3,0.8,0.8,1.1,1.5,1.1c0.6,0,1.1-0.4,1.4-1.2c0.3-0.8,0.4-1.9,0.4-3.5v-3.2c0-2.1-0.1-3.6-0.4-4.4
		c-0.3-0.9-0.7-1.3-1.4-1.3C136.8,11.9,136.2,13.3,136.2,15.9z"/>
	<path class="st1" d="M146.5,25.3V4.3h-1.3V1.1h4.8v24.2h1.1v3.2h-5.9v-3.2H146.5z"/>
	<path class="st1" d="M160.2,22.7l3,1.1c-0.4,1.6-1.1,2.9-1.9,3.8c-0.9,0.9-1.9,1.3-3,1.3c-1.8,0-3.2-0.8-4-2.4
		c-0.8-1.6-1.3-4.1-1.3-7.5c0-3.4,0.4-6,1.3-7.7c0.8-1.7,2.2-2.5,4-2.5c1.5,0,2.7,0.7,3.6,2.1c0.9,1.4,1.4,3.4,1.4,6v2.9h-6.7v0.8
		c0,1.7,0.1,3,0.4,3.8c0.3,0.8,0.7,1.2,1.3,1.2C159.4,25.8,160,24.8,160.2,22.7z M156.6,17.2h3.3v-1.7c0-2.4-0.5-3.6-1.6-3.6
		c-0.6,0-1,0.4-1.3,1.1c-0.2,0.7-0.3,1.8-0.3,3.4V17.2z"/>
	<path class="st1" d="M178,28.5v-3.2h1.8V12.5H178V9.4h1.8v-3c0-1.8,0.4-3.2,1.2-4.2c0.8-1,2-1.6,3.5-1.6c2.1,0,3.5,1.1,4.2,3.4
		l-3.1,1l-0.1-0.3c-0.3-0.7-0.6-1.1-1.2-1.1c-0.4,0-0.7,0.2-0.9,0.6c-0.1,0.4-0.2,1.1-0.2,2.2v3h2.4v3.2h-2.4v12.8h2.6v3.2H178z"/>
	<path class="st1" d="M198.3,9.4v16h1.5v3.2h-4.9V27h-0.1c-0.8,1.2-1.8,1.7-2.9,1.7c-2.2,0-3.2-1.6-3.2-4.7V12.5h-1.6V9.4h5v14.1
		c0,0.8,0.1,1.3,0.2,1.6c0.2,0.3,0.4,0.5,0.9,0.5c0.4,0,0.8-0.2,1.2-0.6c0.3-0.4,0.5-0.7,0.5-0.8V12.5h-1.7V9.4H198.3z"/>
	<path class="st1" d="M201.6,28.5v-3.2h1.4V12.5h-1.5V9.4h4.9v1.5h0.1c0.8-1.2,1.8-1.7,2.9-1.7c1,0,1.8,0.4,2.4,1.2
		c0.6,0.8,0.9,2,0.9,3.5v11.4h1.4v3.2h-4.8V14.4c0-0.8-0.1-1.3-0.2-1.6c-0.2-0.3-0.4-0.5-0.8-0.5c-0.5,0-0.9,0.2-1.2,0.6
		c-0.3,0.4-0.5,0.7-0.5,0.8v11.6h1.4v3.2H201.6z"/>
	<path class="st1" d="M216.2,28.5V24h3.7v4.5H216.2z"/>
</g>
</svg>
