<?xml version="1.0" encoding="utf-8"?>
<!-- Generator: Adobe Illustrator 21.1.0, SVG Export Plug-In . SVG Version: 6.00 Build 0)  -->
<svg version="1.1" id="Layer_1" xmlns="http://www.w3.org/2000/svg" xmlns:xlink="http://www.w3.org/1999/xlink" x="0px" y="0px"
	 viewBox="0 0 650 309" style="enable-background:new 0 0 650 309;" xml:space="preserve">
<style type="text/css">
	.st0{fill:#374B5E;}
	.st1{fill:#3D2C2B;}
</style>
<path class="st0" d="M122.9,141.7c0,2.6-2.1,4.8-4.8,4.8s-4.8-2.1-4.8-4.8c0-2.6,2.1-4.8,4.8-4.8S122.9,139.1,122.9,141.7z
	 M162.1,137c-2.6,0-4.8,2.1-4.8,4.8c0,2.6,2.1,4.8,4.8,4.8c2.6,0,4.8-2.1,4.8-4.8C166.8,139.1,164.7,137,162.1,137z M198.9,140.9
	c0,0-1.5-0.3-4-1.1c-3.1,16.5-13.4,30.4-27.5,38.4c14.2,9.2,23.6,25.3,23.6,43.5h-3.8c0-17.7-9.6-33.2-23.7-41.5
	c-7.1,3.3-15.1,5.2-23.5,5.2c-8.4,0-16.3-1.9-23.5-5.2c-14.1,8.3-23.7,23.8-23.7,41.5h-3.8c0-18.3,9.4-34.3,23.6-43.5
	c-17-9.6-28.4-27.8-28.4-48.6c0-1.6,0.1-3.1,0.2-4.7c-8.6,0.6-14.5,0.3-14.5,0.3l6.9-5.5c-7.7-1.5-12.6-9.8-12.6-9.8
	c14.5,3.3,15.6-5.5,17.2-11.7c1.3-4.7,5-12.8,8.1-16.6C120.5,43.9,160.9,70,160.9,70S209.9,63.8,198.9,140.9z M191.5,138.7
	c-11.2-3.9-31.4-13.6-34.3-32.7c-17.1,19.4-40.8,16.1-40.8,16.1c1.4-0.3,5.7-3.6,10.3-7.6c-11.9,6.5-27,9.2-38.6,10.2
	c-0.2,1.6-0.2,3.3-0.2,4.9c0,20.2,11.6,37.8,28.4,46.5c1.4,0.7,2.9,1.4,4.4,2c6,2.4,12.5,3.7,19.4,3.7c6.8,0,13.4-1.3,19.4-3.7
	c1.5-0.6,3-1.3,4.4-2C178.2,168.8,188.7,155,191.5,138.7z M175.4,35l-15.2,0.3l-5.5,6.1l21.8-0.4L175.4,35z M178.3,50.5l-32.2,0.5
	l-5.5,6.1l38.9-0.6L178.3,50.5z M173.9,27.2l-6.7,0.1l-5.5,6.1l13.3-0.2L173.9,27.2z M176.8,42.8l-23.7,0.4l-5.5,6.1l30.3-0.5
	L176.8,42.8z M143.1,58.9l20.8,5.7l17.1-0.3l-1.2-6L143.1,58.9z M182,69.6l-0.7-3.5l-11.4,0.2L182,69.6z M168.7,25.5l4.8-0.1
	l-0.8-4.4L168.7,25.5z M169.1,17.4l2-0.4l-1.1,1.7c-0.4,0.6-0.2,1.3,0.4,1.7c0.6,0.4,1.3,0.2,1.7-0.4l1.1-1.8l0.4,2
	c0.1,0.7,0.8,1.1,1.5,0.9c0,0,0.1,0,0.1,0c0,0,0.1,0,0.1,0c0.7-0.1,1.1-0.8,0.9-1.5l-0.4-2l1.8,1.1c0.6,0.4,1.3,0.2,1.7-0.4
	c0.4-0.6,0.2-1.3-0.4-1.7l-1.7-1.1l2-0.4c0.7-0.1,1.1-0.8,0.9-1.5c-0.1-0.7-0.8-1.1-1.5-0.9l-2,0.4l1.1-1.7c0.4-0.6,0.2-1.3-0.4-1.7
	c-0.6-0.4-1.3-0.2-1.7,0.4l-1.1,1.8l-0.4-2c-0.1-0.7-0.8-1.1-1.5-0.9c0,0-0.1,0-0.1,0c0,0-0.1,0-0.1,0c-0.7,0.1-1.1,0.8-0.9,1.5
	l0.4,2l-1.8-1.1c-0.6-0.4-1.3-0.2-1.7,0.4c-0.4,0.6-0.2,1.3,0.4,1.7l1.7,1.1l-2,0.4c-0.7,0.1-1.1,0.8-0.9,1.5
	C167.7,17.1,168.4,17.6,169.1,17.4z"/>
<g>
	<path class="st1" d="M38.6,250l-2.3,21.3h6v11.3H17.2v-11.3h5.8l10.3-71.1h-6.5v-11.3h34.7v11.3h-6.5l10.3,71.1h5.8v11.3H46.2
		v-11.3h6L49.8,250H38.6z M39.5,238.7H49l-4-41.8h-1.5L39.5,238.7z"/>
	<path class="st1" d="M103,258.8l10.5,4.5c-0.2,6.7-1.8,11.8-4.9,15.5c-3.1,3.6-7.1,5.4-12,5.4c-6.7,0-11.5-2.6-14.4-7.8
		c-2.9-5.2-4.4-14-4.4-26.3c0-11.8,1.2-20.3,3.6-25.6c2.4-5.3,6.3-7.9,11.5-7.9c4.1,0,7.3,2,9.5,6.1h0.2v-5.4h10.8v23.7h-10.8
		c0-5.3-0.5-9-1.5-11.1c-1-2.1-2.6-3.2-4.9-3.2c-2.5,0-4.1,1.4-4.9,4.1c-0.8,2.8-1.2,7.5-1.2,14.2v10c0,6.9,0.5,11.7,1.5,14.4
		c1,2.6,2.6,4,4.9,4c2.4,0,4.1-1,5-3.1C102.5,268.2,103,264.4,103,258.8z"/>
	<path class="st1" d="M146.8,258.8l10.5,4.5c-0.2,6.7-1.8,11.8-4.9,15.5c-3.1,3.6-7.1,5.4-12,5.4c-6.7,0-11.5-2.6-14.4-7.8
		c-2.9-5.2-4.4-14-4.4-26.3c0-11.8,1.2-20.3,3.6-25.6c2.4-5.3,6.3-7.9,11.5-7.9c4.1,0,7.3,2,9.5,6.1h0.2v-5.4h10.8v23.7h-10.8
		c0-5.3-0.5-9-1.5-11.1c-1-2.1-2.6-3.2-4.9-3.2c-2.5,0-4.1,1.4-4.9,4.1c-0.8,2.8-1.2,7.5-1.2,14.2v10c0,6.9,0.5,11.7,1.5,14.4
		c1,2.6,2.6,4,4.9,4c2.4,0,4.1-1,5-3.1C146.4,268.2,146.8,264.4,146.8,258.8z"/>
	<path class="st1" d="M189.9,262.9l10.3,3.8c-1.4,5.6-3.6,9.9-6.6,12.9c-3,3-6.4,4.5-10.3,4.5c-6.2,0-10.8-2.7-13.7-8.1
		c-2.9-5.4-4.4-13.9-4.4-25.6c0-11.7,1.5-20.5,4.4-26.2c2.9-5.7,7.4-8.6,13.6-8.6c5.1,0,9.2,2.4,12.4,7.1c3.2,4.7,4.8,11.5,4.8,20.4
		v10h-22.8v2.8c0,5.9,0.5,10.2,1.4,13.1c0.9,2.9,2.4,4.3,4.6,4.3C187.3,273.3,189.4,269.8,189.9,262.9z M177.7,243.8h11.1v-5.7
		c0-8.1-1.9-12.2-5.6-12.2c-2.1,0-3.6,1.2-4.3,3.6c-0.8,2.4-1.2,6.2-1.2,11.5V243.8z"/>
	<path class="st1" d="M206.8,217.2h17.3v6.7h0.2c2.5-4.9,5.7-7.4,9.7-7.4c5.1,0,8.9,2.9,11.3,8.6c2.4,5.7,3.6,14.6,3.6,26.7
		c0,10.5-1.1,18.5-3.2,24.1c-2.1,5.6-5.9,8.3-11.4,8.3c-3.9,0-7.3-2-10.1-5.9h-0.2v15.7h6.4v10.8h-23.7v-10.8h5.6V228h-5.6V217.2z
		 M224.1,248.3v10.3c0,5.4,0.5,9.3,1.5,11.7c1,2.4,2.6,3.6,4.9,3.6c2.5,0,4.2-1.4,5-4.2c0.8-2.8,1.2-7,1.2-12.5v-9.1
		c0-7.6-0.4-13-1.2-16.1c-0.8-3.1-2.4-4.7-4.9-4.7c-2.5,0-4.2,1.8-5.1,5.3C224.6,236.1,224.1,241.3,224.1,248.3z"/>
	<path class="st1" d="M272.1,228v38.4c0,4.3,1.7,6.5,5.2,6.5c1.3,0,2.9-0.4,4.7-1.1V282c-2.6,0.9-5.7,1.4-9.3,1.4
		c-4.3,0-7.5-1.3-9.4-4c-2-2.7-3-7-3-12.9V228h-5.7v-10.8h5.7v-10.7c4-2.5,7.9-5.4,11.7-8.5v19.2h7.8V228H272.1z"/>
	<path class="st1" d="M330.5,271.8v10.8h-16.8V277h-0.2c-2.6,4.2-6.1,6.3-10.6,6.3c-4.1,0-7.5-1.9-10.1-5.6
		c-2.6-3.7-3.9-8.6-3.9-14.5c0-6.6,1.5-11.7,4.4-15.3c2.9-3.6,6.6-5.4,11.1-5.4c3.7,0,6.8,1.5,9.3,4.6v-11.3c0-4.3-0.5-7.1-1.6-8.2
		c-1.1-1.2-2.5-1.8-4.4-1.8c-3.9,0-6,2.8-6.4,8.4l-10.8-3c0.8-4.9,2.8-8.8,6-11.5c3.2-2.7,7-4.1,11.6-4.1c5,0,9.1,1.6,12.4,4.8
		c3.3,3.2,4.9,7.6,4.9,13.3v38H330.5z M313.7,269.7v-14.4c-1.7-2-3.7-3-5.8-3c-4.4,0-6.7,3.5-6.7,10.6c0,6.8,2.2,10.3,6.7,10.3
		C310,273.1,311.9,272,313.7,269.7z"/>
	<path class="st1" d="M336.2,282.6v-10.8h5.6v-72.1h-5.6v-10.8h17.3v32.7h0.3c2.8-3.9,6.1-5.8,10-5.8c5.3,0,9,2.7,11.3,8.1
		c2.2,5.4,3.3,14.5,3.3,27.2c0,10.5-1.3,18.6-3.8,24.1c-2.5,5.5-6.2,8.3-11.1,8.3c-4,0-7.3-2.4-9.8-7.3h-0.3v6.6H336.2z
		 M353.5,239.5v17.2c0,5.4,0.5,9.4,1.4,11.9c0.9,2.6,2.6,3.9,5.1,3.9c2.2,0,3.8-1.3,4.7-4c0.9-2.7,1.4-6.6,1.4-11.9v-11.1
		c0-7.2-0.5-12.3-1.4-15.2c-0.9-2.9-2.5-4.4-4.7-4.4C355.7,225.9,353.5,230.5,353.5,239.5z"/>
	<path class="st1" d="M388.6,271.8v-72.1H384v-10.8h16.3v82.9h3.9v10.8H384v-10.8H388.6z"/>
	<path class="st1" d="M435.5,262.9l10.3,3.8c-1.4,5.6-3.6,9.9-6.6,12.9s-6.4,4.5-10.3,4.5c-6.2,0-10.8-2.7-13.7-8.1
		c-2.9-5.4-4.4-13.9-4.4-25.6c0-11.7,1.5-20.5,4.4-26.2c2.9-5.7,7.4-8.6,13.6-8.6c5.1,0,9.2,2.4,12.4,7.1c3.2,4.7,4.8,11.5,4.8,20.4
		v10h-22.8v2.8c0,5.9,0.5,10.2,1.4,13.1c0.9,2.9,2.4,4.3,4.6,4.3C432.8,273.3,434.9,269.8,435.5,262.9z M423.3,243.8h11.1v-5.7
		c0-8.1-1.9-12.2-5.6-12.2c-2.1,0-3.6,1.2-4.3,3.6c-0.8,2.4-1.2,6.2-1.2,11.5V243.8z"/>
	<path class="st1" d="M496.6,282.6v-10.8h6.2V228h-6.2v-10.8h6.2v-10.1c0-6.1,1.4-10.9,4.2-14.4c2.8-3.6,6.7-5.4,11.9-5.4
		c7.1,0,11.8,3.9,14.2,11.6l-10.7,3.5l-0.4-1.1c-0.9-2.5-2.2-3.8-4-3.8c-1.5,0-2.5,0.7-2.9,2.2c-0.4,1.5-0.6,3.9-0.6,7.4v10.1h8.3
		V228h-8.3v43.7h8.9v10.8H496.6z"/>
	<path class="st1" d="M565.9,217.2v54.6h5.2v10.8h-16.9v-5.2h-0.2c-2.7,4-6.1,6-10,6c-7.4,0-11.1-5.4-11.1-16.2V228h-5.4v-10.8h17
		v48.2c0,2.6,0.3,4.4,0.8,5.5c0.5,1.1,1.5,1.6,3,1.6c1.5,0,2.9-0.7,4.1-2.1c1.2-1.4,1.8-2.3,1.8-2.6V228h-5.7v-10.8H565.9z"/>
	<path class="st1" d="M577.1,282.6v-10.8h4.9V228h-5.1v-10.8h16.8v5.2h0.3c2.7-4,6-6,9.9-6c3.4,0,6.1,1.4,8.1,4.3
		c2,2.8,3,6.8,3,11.9v39.1h4.9v10.8h-16.5v-48.2c0-2.7-0.3-4.5-0.8-5.6c-0.5-1.1-1.5-1.6-2.9-1.6c-1.6,0-3,0.7-4.1,2.1
		c-1.2,1.4-1.8,2.3-1.8,2.6v39.8h4.9v10.8H577.1z"/>
	<path class="st1" d="M627.2,282.6v-15.4H640v15.4H627.2z"/>
</g>
</svg>
