<?xml version="1.0" encoding="utf-8"?>
<!-- Generator: Adobe Illustrator 21.0.2, SVG Export Plug-In . SVG Version: 6.00 Build 0)  -->
<svg version="1.1" id="Layer_2" xmlns="http://www.w3.org/2000/svg" xmlns:xlink="http://www.w3.org/1999/xlink" x="0px" y="0px"
	 viewBox="0 0 671 138" style="enable-background:new 0 0 671 138;" xml:space="preserve">
<style type="text/css">
	.st0{fill:#FFFFFF;}
	.st1{fill:#24BAE4;}
	.st2{fill:#CCCCCC;}
	.st3{opacity:0.15;fill:url(#SVGID_1_);enable-background:new    ;}
	.st4{opacity:0.6;}
	.st5{fill:url(#SVGID_2_);}
	.st6{fill:url(#SVGID_3_);}
	.st7{fill:#B9B9BA;}
	.st8{fill:#010101;}
	.st9{fill:#020202;}
	.st10{fill:#030303;}
	.st11{fill:#040404;}
	.st12{fill:#050505;}
	.st13{fill:#060606;}
	.st14{fill:#070707;}
	.st15{fill:#080808;}
	.st16{fill:#090909;}
	.st17{fill:#0A0A0A;}
	.st18{fill:#0B0B0B;}
	.st19{fill:#0C0C0C;}
	.st20{fill:#0D0D0D;}
	.st21{fill:#0E0E0E;}
	.st22{fill:#0F0F0F;}
	.st23{fill:#101010;}
	.st24{fill:#111111;}
	.st25{fill:#121212;}
	.st26{fill:#131313;}
	.st27{fill:#141414;}
	.st28{fill:#151515;}
	.st29{fill:#161616;}
	.st30{fill:#171717;}
	.st31{fill:#181818;}
	.st32{fill:#191919;}
	.st33{fill:#1A1A1A;}
	.st34{fill:#1B1B1B;}
	.st35{fill:#1C1C1C;}
	.st36{fill:#1D1D1D;}
	.st37{fill:#1E1E1E;}
	.st38{fill:#1F1F1F;}
	.st39{fill:#202020;}
	.st40{fill:#212121;}
	.st41{fill:#222222;}
	.st42{fill:#232323;}
	.st43{fill:#242424;}
	.st44{fill:#252525;}
	.st45{fill:#262626;}
	.st46{fill:#272727;}
	.st47{fill:#282828;}
	.st48{fill:#292929;}
	.st49{fill:#2A2A2A;}
	.st50{fill:#2B2B2B;}
	.st51{fill:#2C2C2C;}
	.st52{fill:#2D2D2D;}
	.st53{fill:#2E2E2E;}
	.st54{fill:#2F2F2F;}
	.st55{fill:#303030;}
	.st56{fill:#313131;}
	.st57{fill:#323232;}
	.st58{fill:#333333;}
	.st59{fill:#343434;}
	.st60{fill:#353535;}
	.st61{fill:#363636;}
	.st62{fill:#373737;}
	.st63{fill:#383838;}
	.st64{fill:#393939;}
	.st65{fill:#3A3A3A;}
	.st66{fill:#3B3B3B;}
	.st67{fill:#3C3C3C;}
	.st68{fill:#3D3D3D;}
	.st69{opacity:0.3;}
	.st70{fill:url(#SVGID_4_);}
	.st71{opacity:0.64;fill:url(#SVGID_5_);enable-background:new    ;}
	.st72{opacity:0.7;}
	.st73{fill:url(#SVGID_6_);stroke:#979797;stroke-width:0.7648;}
</style>
<g>
	<g>
		<g>
			<path class="st0" d="M187.1,61.5c-2.6,0-4.9,0.6-6.6,1.8c-1.8,1.2-3.2,2.8-4.4,4.7c-1.1,1.9-1.9,4-2.4,6.3s-0.7,4.6-0.7,6.8
				c0,2.2,0.2,4.4,0.7,6.6s1.2,4.3,2.3,6.1c1,1.8,2.5,3.3,4.3,4.5s4,1.7,6.5,1.7c4,0,7-1.1,9.1-3.3c2.1-2.2,3.5-5.2,4-8.9h16
				c-1.1,8-4.2,14.1-9.3,18.3s-11.7,6.3-19.7,6.3c-4.5,0-8.6-0.8-12.4-2.3c-3.8-1.5-7-3.6-9.6-6.3c-2.6-2.7-4.7-6-6.2-9.7
				c-1.5-3.8-2.2-7.9-2.2-12.4c0-4.7,0.7-9,2-13c1.4-4,3.4-7.5,6-10.4s5.9-5.2,9.7-6.8s8.2-2.4,13.1-2.4c3.6,0,7,0.5,10.3,1.4
				s6.3,2.4,8.9,4.3c2.6,1.9,4.7,4.3,6.4,7.1c1.6,2.8,2.6,6.2,2.8,10.1h-16.2C198.3,65,194.2,61.5,187.1,61.5z"/>
			<path class="st0" d="M218.6,67.8c1.5-3.9,3.6-7.3,6.3-10c2.7-2.8,6-4.9,9.8-6.4s8.1-2.3,12.8-2.3s9,0.8,12.9,2.3
				c3.8,1.5,7.1,3.7,9.8,6.4c2.7,2.8,4.8,6.1,6.3,10s2.2,8.3,2.2,13.1c0,4.8-0.7,9.2-2.2,13.1s-3.6,7.2-6.3,10
				c-2.7,2.8-6,4.9-9.8,6.4s-8.1,2.2-12.9,2.2s-9-0.7-12.8-2.2s-7.1-3.6-9.8-6.4s-4.8-6.1-6.3-10s-2.2-8.2-2.2-13.1
				C216.4,76.1,217.1,71.7,218.6,67.8z M233.7,87.9c0.5,2.3,1.3,4.4,2.4,6.2c1.1,1.8,2.6,3.3,4.5,4.4s4.2,1.6,7,1.6s5.2-0.5,7.1-1.6
				s3.4-2.5,4.5-4.4c1.1-1.8,1.9-3.9,2.4-6.2c0.5-2.3,0.7-4.6,0.7-7s-0.2-4.8-0.7-7.1c-0.5-2.3-1.3-4.4-2.4-6.2
				c-1.1-1.8-2.6-3.2-4.5-4.4c-1.9-1.1-4.3-1.7-7.1-1.7s-5.1,0.6-7,1.7c-1.9,1.1-3.4,2.6-4.5,4.4s-1.9,3.8-2.4,6.2
				c-0.5,2.3-0.7,4.7-0.7,7.1C233,83.3,233.2,85.7,233.7,87.9z"/>
			<path class="st0" d="M295.9,50.7v8.4h0.3c2.1-3.5,4.8-6,8.2-7.6c3.3-1.6,6.8-2.4,10.3-2.4c4.4,0,8.1,0.6,10.9,1.8s5.1,2.9,6.7,5
				s2.8,4.7,3.4,7.8c0.7,3.1,1,6.5,1,10.2V111h-16.5V77c0-5-0.8-8.7-2.3-11.1c-1.6-2.5-4.3-3.7-8.3-3.7c-4.5,0-7.8,1.3-9.8,4
				s-3,7.1-3,13.2V111h-16.5V50.7H295.9z"/>
			<path class="st0" d="M368.7,61.5c-2.6,0-4.9,0.6-6.6,1.8c-1.8,1.2-3.2,2.8-4.4,4.7c-1.1,1.9-1.9,4-2.4,6.3s-0.7,4.6-0.7,6.8
				c0,2.2,0.2,4.4,0.7,6.6s1.2,4.3,2.3,6.1c1,1.8,2.5,3.3,4.3,4.5s4,1.7,6.5,1.7c4,0,7-1.1,9.2-3.3c2.1-2.2,3.5-5.2,4-8.9h16
				c-1.1,8-4.2,14.1-9.3,18.3c-5.1,4.2-11.7,6.3-19.7,6.3c-4.5,0-8.6-0.8-12.4-2.3s-7-3.6-9.6-6.3c-2.6-2.7-4.7-6-6.2-9.7
				c-1.5-3.8-2.2-7.9-2.2-12.4c0-4.7,0.7-9,2-13c1.4-4,3.4-7.5,6-10.4s5.9-5.2,9.7-6.8c3.8-1.6,8.2-2.4,13.1-2.4
				c3.6,0,7,0.5,10.3,1.4s6.3,2.4,8.9,4.3c2.6,1.9,4.7,4.3,6.4,7.1c1.6,2.8,2.6,6.2,2.8,10.1H381C379.9,65,375.8,61.5,368.7,61.5z"
				/>
			<path class="st0" d="M414.4,50.7v11.2h0.2c0.8-1.9,1.8-3.6,3.1-5.2c1.3-1.6,2.8-2.9,4.5-4.1c1.7-1.1,3.5-2,5.5-2.6
				c1.9-0.6,4-0.9,6.1-0.9c1.1,0,2.3,0.2,3.6,0.6v15.4c-0.8-0.2-1.7-0.3-2.8-0.4c-1.1-0.1-2.1-0.2-3.1-0.2c-3,0-5.6,0.5-7.7,1.5
				s-3.8,2.4-5.1,4.1c-1.3,1.7-2.2,3.8-2.7,6.1c-0.5,2.3-0.8,4.9-0.8,7.6V111h-16.5V50.7H414.4z"/>
			<path class="st0" d="M457.3,96.5c2.5,2.4,6.1,3.6,10.7,3.6c3.3,0,6.2-0.8,8.6-2.5s3.9-3.4,4.4-5.3h14.6
				c-2.3,7.2-5.9,12.4-10.7,15.5c-4.8,3.1-10.6,4.7-17.5,4.7c-4.7,0-9-0.8-12.8-2.3s-7-3.7-9.7-6.5c-2.6-2.8-4.7-6.1-6.1-10
				s-2.2-8.2-2.2-12.8c0-4.5,0.7-8.7,2.2-12.6s3.6-7.2,6.3-10.1c2.7-2.8,6-5.1,9.7-6.7c3.8-1.6,7.9-2.4,12.5-2.4c5.1,0,9.6,1,13.4,3
				s6.9,4.6,9.4,8c2.4,3.3,4.2,7.1,5.3,11.4c1.1,4.3,1.5,8.7,1.2,13.4h-43.5C453.5,90.2,454.8,94.1,457.3,96.5z M476,64.8
				c-2-2.2-5-3.3-9-3.3c-2.6,0-4.8,0.5-6.6,1.3c-1.7,0.9-3.1,2-4.2,3.3s-1.8,2.7-2.2,4.2c-0.4,1.5-0.7,2.8-0.8,4h26.9
				C479.4,70.2,478,67,476,64.8z"/>
			<path class="st0" d="M531.4,50.7v11.1h-12.1v29.8c0,2.8,0.5,4.7,1.4,5.6s2.8,1.4,5.6,1.4c0.9,0,1.8,0,2.7-0.1s1.7-0.2,2.4-0.3
				V111c-1.4,0.2-3,0.4-4.7,0.5s-3.4,0.1-5,0.1c-2.6,0-5-0.2-7.3-0.5s-4.3-1-6.1-2c-1.7-1-3.1-2.4-4.1-4.3s-1.5-4.3-1.5-7.3V61.8
				h-10V50.7h10V32.6h16.5v18.1C519.2,50.7,531.4,50.7,531.4,50.7z"/>
			<path class="st0" d="M550.1,96.5c2.5,2.4,6.1,3.6,10.7,3.6c3.3,0,6.2-0.8,8.6-2.5c2.4-1.7,3.9-3.4,4.4-5.3h14.6
				c-2.3,7.2-5.9,12.4-10.7,15.5s-10.6,4.7-17.5,4.7c-4.7,0-9-0.8-12.8-2.3s-7-3.7-9.7-6.5c-2.6-2.8-4.7-6.1-6.1-10
				c-1.4-3.9-2.2-8.2-2.2-12.8c0-4.5,0.7-8.7,2.2-12.6s3.6-7.2,6.3-10.1c2.7-2.8,6-5.1,9.7-6.7c3.8-1.6,7.9-2.4,12.5-2.4
				c5.1,0,9.6,1,13.4,3c3.8,2,6.9,4.6,9.4,8c2.4,3.3,4.2,7.1,5.3,11.4c1.1,4.3,1.5,8.7,1.2,13.4H546
				C546.2,90.2,547.6,94.1,550.1,96.5z M568.8,64.8c-2-2.2-5-3.3-9-3.3c-2.6,0-4.8,0.5-6.6,1.3c-1.7,0.9-3.1,2-4.2,3.3
				c-1.1,1.3-1.8,2.7-2.2,4.2s-0.7,2.8-0.8,4h26.9C572.1,70.2,570.8,67,568.8,64.8z"/>
		</g>
		<g>
			<path class="st1" d="M616,43.3l-3.3,18.5l0.2,0.2c2.3-2.3,4.7-3.9,7.2-4.8c2.6-1,5.5-1.5,8.7-1.5c4,0,7.6,0.7,10.7,2.2
				c3.1,1.5,5.7,3.5,7.9,5.9c2.1,2.5,3.8,5.4,4.9,8.8c1.1,3.4,1.7,7,1.7,10.8c0,4.2-0.8,8.1-2.4,11.7c-1.6,3.6-3.8,6.7-6.6,9.4
				c-2.8,2.6-6,4.7-9.6,6.1c-3.7,1.4-7.5,2.1-11.7,2c-4,0-7.7-0.5-11.4-1.6c-3.6-1-6.8-2.7-9.6-4.8c-2.8-2.2-5-4.9-6.7-8.1
				s-2.5-7-2.6-11.3h16.5c0.4,3.7,1.8,6.7,4.2,8.9c2.4,2.2,5.5,3.3,9.2,3.3c2.2,0,4.1-0.4,5.9-1.3c1.7-0.9,3.2-2.1,4.4-3.5
				s2.1-3.1,2.8-5s1-3.9,1-5.9c0-2.1-0.3-4.1-0.9-5.9c-0.6-1.9-1.6-3.5-2.8-4.9s-2.7-2.5-4.4-3.3s-3.7-1.2-5.9-1.2
				c-3,0-5.4,0.5-7.2,1.6c-1.9,1.1-3.6,2.7-5.2,5h-14.9l8-45.1h45.6v13.6H616V43.3z"/>
		</g>
		<g>
			<path class="st2" d="M661.1,31c-2.7,0-4.9,2.2-4.9,4.9s2.2,4.9,4.9,4.9s4.9-2.2,4.9-4.9S663.8,31,661.1,31z M661.1,40.3
				c-2.4,0-4.4-2-4.4-4.4s2-4.4,4.4-4.4s4.4,2,4.4,4.4C665.5,38.3,663.5,40.3,661.1,40.3z M662.6,35.2c0-0.9-0.6-1.3-1.6-1.3h-1.6v4
				h1c0,0,0-1.3,0-1.4h0.5l0.7,1.4h1l-0.8-1.6C662.4,36.2,662.6,35.8,662.6,35.2z M661,35.8h-0.6v-1.1h0.6c0.5,0,0.7,0.2,0.7,0.5
				C661.7,35.6,661.5,35.8,661,35.8z"/>
		</g>
	</g>
	<g>
		
			<linearGradient id="SVGID_1_" gradientUnits="userSpaceOnUse" x1="851.7773" y1="-152.2845" x2="851.7773" y2="-171.8265" gradientTransform="matrix(-1 0 0 1 925.7773 279.9063)">
			<stop  offset="0" style="stop-color:#FFFFFF"/>
			<stop  offset="5.874219e-03" style="stop-color:#F7F7F7"/>
			<stop  offset="3.627752e-02" style="stop-color:#D3D3D3"/>
			<stop  offset="7.048631e-02" style="stop-color:#B2B2B2"/>
			<stop  offset="0.1083" style="stop-color:#979797"/>
			<stop  offset="0.151" style="stop-color:#818181"/>
			<stop  offset="0.2009" style="stop-color:#707070"/>
			<stop  offset="0.2625" style="stop-color:#646464"/>
			<stop  offset="0.349" style="stop-color:#5E5E5E"/>
			<stop  offset="0.5892" style="stop-color:#5C5C5C"/>
		</linearGradient>
		<path class="st3" d="M115.1,123.2H32.9c-8.3,0-15.1-6.8-15.1-15.1v4.5c0,8.3,6.8,15.1,15.1,15.1h82.2c8.3,0,15.1-6.8,15.1-15.1
			v-4.5C130.2,116.4,123.4,123.2,115.1,123.2z"/>
		<g class="st4">
			
				<linearGradient id="SVGID_2_" gradientUnits="userSpaceOnUse" x1="74" y1="126.8588" x2="74" y2="122.4687" gradientTransform="matrix(1 0 0 -1 0 138)">
				<stop  offset="0" style="stop-color:#6B6B6B"/>
				<stop  offset="0.1901" style="stop-color:#676767"/>
				<stop  offset="0.3845" style="stop-color:#5B5B5B"/>
				<stop  offset="0.581" style="stop-color:#464646"/>
				<stop  offset="0.7788" style="stop-color:#2A2A2A"/>
				<stop  offset="0.976" style="stop-color:#050505"/>
				<stop  offset="1" style="stop-color:#000000"/>
			</linearGradient>
			<path class="st5" d="M117.4,11.1H30.6c-3.1,0-6,0.8-8.4,2.2c1.8-0.1,3.5,1.3,3.5,2.2c2-0.9,4.2-1.4,6.6-1.4h83.5
				c2.4,0,4.6,0.5,6.6,1.4c-0.4-1,1.2-2.5,3.4-2.4C123.4,12,120.5,11.1,117.4,11.1z"/>
		</g>
		
			<linearGradient id="SVGID_3_" gradientUnits="userSpaceOnUse" x1="74.2" y1="127.2" x2="74.2" y2="5.6" gradientTransform="matrix(1 0 0 -1 0 138)">
			<stop  offset="0" style="stop-color:#7A7A7A"/>
			<stop  offset="1" style="stop-color:#000000"/>
		</linearGradient>
		<path class="st6" d="M118.7,10.8h-89c-9,0-16.3,7.3-16.3,16.3v89c0,9,7.3,16.3,16.3,16.3h89c9,0,16.3-7.3,16.3-16.3v-89
			C135,18.1,127.7,10.8,118.7,10.8z"/>
		<path class="st7" d="M118.3,11.3H30c-8.9,0-16.2,7.3-16.2,16.2v88.3c0,8.9,7.3,16.2,16.2,16.2h88.3c8.9,0,16.2-7.3,16.2-16.2V27.5
			C134.5,18.6,127.3,11.3,118.3,11.3z"/>
		<g>
			<g>
				<path d="M129.9,113.6c0,8.3-6.7,14.9-14.9,14.9H33.6c-8.3,0-14.9-6.7-14.9-14.9V32.2c0-8.2,6.7-14.9,14.9-14.9H115
					c8.2,0,14.9,6.7,14.9,14.9V113.6z"/>
				<path class="st8" d="M129.5,113.5c0,8.1-6.6,14.8-14.8,14.8H33.9c-8.2,0-14.8-6.6-14.8-14.8V33.1c0-8.1,6.6-14.7,14.8-14.7h80.7
					c8.2,0,14.8,6.6,14.8,14.7v80.4H129.5z"/>
				<path class="st9" d="M129,113.4c0,8-6.6,14.6-14.7,14.6H34.2c-8.1,0-14.7-6.5-14.7-14.6V34c0-8,6.6-14.6,14.7-14.6h80.1
					c8.1,0,14.7,6.5,14.7,14.6V113.4z"/>
				<path class="st10" d="M128.6,113.3c0,7.9-6.5,14.4-14.6,14.4H34.6c-8.1,0-14.6-6.4-14.6-14.4V35c0-7.9,6.5-14.4,14.6-14.4H114
					c8.1,0,14.6,6.4,14.6,14.4V113.3z"/>
				<path class="st11" d="M128.1,113.2c0,7.8-6.5,14.2-14.5,14.2H34.9c-8,0-14.5-6.4-14.5-14.2V35.9c0-7.8,6.5-14.2,14.5-14.2h78.8
					c8,0,14.5,6.4,14.5,14.2v77.3H128.1z"/>
				<path class="st12" d="M127.7,113.2c0,7.7-6.4,14-14.3,14H35.2c-7.9,0-14.3-6.3-14.3-14V36.8c0-7.7,6.4-14,14.3-14h78.1
					c7.9,0,14.3,6.3,14.3,14L127.7,113.2L127.7,113.2z"/>
				<path class="st13" d="M127.2,113.1c0,7.6-6.4,13.8-14.2,13.8H35.5c-7.9,0-14.2-6.2-14.2-13.8V37.8c0-7.6,6.4-13.8,14.2-13.8H113
					c7.9,0,14.2,6.2,14.2,13.8V113.1z"/>
				<path class="st14" d="M126.8,113c0,7.5-6.3,13.6-14.1,13.6H35.9c-7.8,0-14.1-6.1-14.1-13.6V38.7c0-7.5,6.3-13.6,14.1-13.6h76.8
					c7.8,0,14.1,6.1,14.1,13.6V113z"/>
				<path class="st15" d="M126.3,112.9c0,7.4-6.3,13.4-14,13.4H36.2c-7.7,0-14-6-14-13.4V39.6c0-7.4,6.3-13.4,14-13.4h76.1
					c7.7,0,14,6,14,13.4V112.9z"/>
				<path class="st16" d="M125.9,112.8c0,7.3-6.2,13.3-13.9,13.3H36.5c-7.7,0-13.9-5.9-13.9-13.3V40.5c0-7.3,6.2-13.3,13.9-13.3H112
					c7.7,0,13.9,5.9,13.9,13.3V112.8z"/>
				<path class="st17" d="M125.4,112.7c0,7.2-6.2,13.1-13.7,13.1H36.8c-7.6,0-13.7-5.9-13.7-13.1V41.5c0-7.2,6.1-13.1,13.7-13.1
					h74.8c7.6,0,13.7,5.9,13.7,13.1L125.4,112.7L125.4,112.7z"/>
				<path class="st18" d="M125,112.6c0,7.1-6.1,12.9-13.6,12.9H37.2c-7.5,0-13.6-5.8-13.6-12.9V42.4c0-7.1,6.1-12.9,13.6-12.9h74.2
					c7.5,0,13.6,5.8,13.6,12.9C125,42.4,125,112.6,125,112.6z"/>
				<path class="st19" d="M124.5,112.6c0,7-6,12.7-13.5,12.7H37.5c-7.5,0-13.5-5.7-13.5-12.7V43.3c0-7,6-12.7,13.5-12.7H111
					c7.5,0,13.5,5.7,13.5,12.7V112.6z"/>
				<path class="st20" d="M124.1,112.5c0,6.9-6,12.5-13.4,12.5H37.8c-7.4,0-13.4-5.6-13.4-12.5V44.3c0-6.9,6-12.5,13.4-12.5h72.9
					c7.4,0,13.4,5.6,13.4,12.5V112.5z"/>
				<path class="st21" d="M123.6,112.4c0,6.8-5.9,12.3-13.3,12.3H38.2c-7.3,0-13.2-5.5-13.2-12.3V45.2c0-6.8,5.9-12.3,13.2-12.3
					h72.2c7.3,0,13.3,5.5,13.3,12.3L123.6,112.4L123.6,112.4z"/>
				<path class="st22" d="M123.2,112.3c0,6.7-5.9,12.1-13.1,12.1H38.5c-7.3,0-13.1-5.4-13.1-12.1V46.1c0-6.7,5.9-12.1,13.1-12.1H110
					c7.3,0,13.1,5.4,13.1,12.1L123.2,112.3L123.2,112.3z"/>
				<path class="st23" d="M122.7,112.2c0,6.6-5.8,12-13,12H38.8c-7.2,0-13-5.4-13-12V47.1c0-6.6,5.8-12,13-12h70.9
					c7.2,0,13,5.4,13,12V112.2z"/>
				<path class="st24" d="M122.3,112.1c0,6.5-5.8,11.8-12.9,11.8H39.1c-7.1,0-12.9-5.3-12.9-11.8V48c0-6.5,5.8-11.8,12.9-11.8h70.2
					c7.1,0,12.9,5.3,12.9,11.8v64.1H122.3z"/>
				<path class="st25" d="M121.8,112.1c0,6.4-5.7,11.6-12.8,11.6H39.5c-7.1,0-12.8-5.2-12.8-11.6V48.9c0-6.4,5.7-11.6,12.8-11.6
					h69.6c7.1,0,12.8,5.2,12.8,11.6L121.8,112.1L121.8,112.1z"/>
				<path class="st26" d="M121.4,112c0,6.3-5.7,11.4-12.7,11.4H39.8c-7,0-12.6-5.1-12.6-11.4V49.8c0-6.3,5.7-11.4,12.6-11.4h68.9
					c7,0,12.7,5.1,12.7,11.4C121.4,49.8,121.4,112,121.4,112z"/>
				<path class="st27" d="M120.9,111.9c0,6.2-5.6,11.2-12.5,11.2H40.1c-6.9,0-12.5-5-12.5-11.2V50.8c0-6.2,5.6-11.2,12.5-11.2h68.3
					c6.9,0,12.5,5,12.5,11.2V111.9z"/>
				<path class="st28" d="M120.5,111.8c0,6.1-5.6,11-12.4,11H40.5c-6.9,0-12.4-4.9-12.4-11V51.7c0-6.1,5.6-11,12.4-11h67.6
					c6.9,0,12.4,4.9,12.4,11V111.8z"/>
				<path class="st29" d="M120,111.7c0,6-5.5,10.8-12.3,10.8h-67c-6.8,0-12.3-4.9-12.3-10.8V52.6c0-6,5.5-10.8,12.3-10.8h67
					c6.8,0,12.3,4.9,12.3,10.8V111.7z"/>
				<path class="st30" d="M119.6,111.6c0,5.9-5.4,10.7-12.2,10.7H41.1c-6.7,0-12.2-4.8-12.2-10.7v-58c0-5.9,5.4-10.7,12.2-10.7h66.3
					c6.7,0,12.2,4.8,12.2,10.7V111.6z"/>
				<path class="st31" d="M119.1,111.5c0,5.8-5.4,10.5-12,10.5H41.4c-6.7,0-12-4.7-12-10.5v-57c0-5.8,5.4-10.5,12-10.5H107
					c6.7,0,12,4.7,12,10.5L119.1,111.5L119.1,111.5z"/>
				<path class="st32" d="M118.7,111.5c0,5.7-5.3,10.3-11.9,10.3h-65c-6.6,0-11.9-4.6-11.9-10.3v-56c0-5.7,5.3-10.3,11.9-10.3h65
					c6.6,0,11.9,4.6,11.9,10.3V111.5z"/>
				<path class="st33" d="M118.2,111.4c0,5.6-5.3,10.1-11.8,10.1H42.1c-6.5,0-11.8-4.5-11.8-10.1v-55c0-5.6,5.3-10.1,11.8-10.1h64.3
					c6.5,0,11.8,4.5,11.8,10.1C118.2,56.4,118.2,111.4,118.2,111.4z"/>
				<path class="st34" d="M117.8,111.3c0,5.5-5.2,9.9-11.7,9.9H42.4c-6.5,0-11.7-4.4-11.7-9.9v-54c0-5.5,5.2-9.9,11.7-9.9h63.7
					c6.5,0,11.7,4.4,11.7,9.9V111.3z"/>
				<path class="st35" d="M117.3,111.2c0,5.4-5.2,9.7-11.6,9.7h-63c-6.4,0-11.6-4.4-11.6-9.7v-53c0-5.4,5.2-9.7,11.6-9.7h63
					c6.4,0,11.6,4.4,11.6,9.7V111.2z"/>
				<path class="st36" d="M116.9,111.1c0,5.3-5.1,9.5-11.4,9.5H43.1c-6.3,0-11.4-4.3-11.4-9.5v-52c0-5.3,5.1-9.5,11.4-9.5h62.4
					c6.3,0,11.4,4.3,11.4,9.5V111.1z"/>
				<path class="st37" d="M116.4,111c0,5.2-5.1,9.4-11.3,9.4H43.4c-6.3,0-11.3-4.2-11.3-9.4V60c0-5.2,5.1-9.4,11.3-9.4h61.7
					c6.3,0,11.3,4.2,11.3,9.4C116.4,60,116.4,111,116.4,111z"/>
				<path class="st38" d="M116,111c0,5.1-5,9.2-11.2,9.2h-61c-6.2,0-11.2-4.1-11.2-9.2V61c0-5.1,5-9.2,11.2-9.2h61
					c6.2,0,11.2,4.1,11.2,9.2V111z"/>
				<path class="st38" d="M115.5,110.9c0,5-5,9-11.1,9H44.1c-6.1,0-11.1-4-11.1-9v-49c0-5,5-9,11.1-9h60.4c6.1,0,11.1,4,11.1,9
					L115.5,110.9L115.5,110.9z"/>
				<path class="st39" d="M115.1,110.8c0,4.9-4.9,8.8-11,8.8H44.4c-6.1,0-11-3.9-11-8.8V62.9c0-4.9,4.9-8.8,11-8.8h59.7
					c6.1,0,11,3.9,11,8.8C115.1,62.9,115.1,110.8,115.1,110.8z"/>
				<path class="st40" d="M114.6,110.7c0,4.8-4.9,8.6-10.8,8.6H44.7c-6,0-10.8-3.9-10.8-8.6V63.8c0-4.8,4.9-8.6,10.8-8.6h59.1
					c6,0,10.8,3.9,10.8,8.6C114.6,63.8,114.6,110.7,114.6,110.7z"/>
				<path class="st41" d="M114.2,110.6c0,4.7-4.8,8.4-10.7,8.4H45.1c-5.9,0-10.7-3.8-10.7-8.4V64.7c0-4.7,4.8-8.4,10.7-8.4h58.4
					c5.9,0,10.7,3.8,10.7,8.4V110.6z"/>
				<path class="st42" d="M113.8,110.5c0,4.5-4.7,8.2-10.6,8.2H45.4c-5.9,0-10.6-3.7-10.6-8.2V65.6c0-4.5,4.7-8.2,10.6-8.2h57.8
					c5.9,0,10.6,3.7,10.6,8.2C113.8,65.6,113.8,110.5,113.8,110.5z"/>
				<path class="st43" d="M113.3,110.4c0,4.4-4.7,8.1-10.5,8.1H45.7c-5.8,0-10.5-3.6-10.5-8.1V66.6c0-4.4,4.7-8,10.5-8h57.1
					c5.8,0,10.5,3.6,10.5,8V110.4z"/>
				<path class="st44" d="M112.9,110.4c0,4.3-4.6,7.9-10.4,7.9H46c-5.7,0-10.4-3.5-10.4-7.9V67.5c0-4.3,4.6-7.9,10.4-7.9h56.5
					c5.7,0,10.4,3.5,10.4,7.9V110.4z"/>
				<path class="st45" d="M112.4,110.3c0,4.2-4.6,7.7-10.2,7.7H46.4c-5.7,0-10.2-3.4-10.2-7.7V68.4c0-4.2,4.6-7.7,10.2-7.7h55.8
					c5.7,0,10.2,3.4,10.2,7.7C112.4,68.4,112.4,110.3,112.4,110.3z"/>
				<path class="st46" d="M112,110.2c0,4.1-4.5,7.5-10.1,7.5H46.7c-5.6,0-10.1-3.4-10.1-7.5V69.4c0-4.1,4.5-7.5,10.1-7.5h55.1
					c5.6,0,10.1,3.4,10.1,7.5v40.8H112z"/>
				<path class="st47" d="M111.5,110.1c0,4-4.5,7.3-10,7.3H47c-5.5,0-10-3.3-10-7.3V70.3c0-4,4.5-7.3,10-7.3h54.5
					c5.5,0,10,3.3,10,7.3V110.1z"/>
				<path class="st48" d="M111.1,110c0,3.9-4.4,7.1-9.9,7.1H47.4c-5.5,0-9.9-3.2-9.9-7.1V71.2c0-3.9,4.4-7.1,9.9-7.1h53.8
					c5.5,0,9.9,3.2,9.9,7.1V110z"/>
				<path class="st49" d="M110.6,109.9c0,3.8-4.4,6.9-9.8,6.9H47.7c-5.4,0-9.8-3.1-9.8-6.9V72.2c0-3.8,4.4-6.9,9.8-6.9h53.2
					c5.4,0,9.8,3.1,9.8,6.9v37.7H110.6z"/>
				<path class="st50" d="M110.2,109.9c0,3.7-4.3,6.7-9.6,6.7H48c-5.3,0-9.6-3-9.6-6.7V73.1c0-3.7,4.3-6.7,9.6-6.7h52.5
					c5.3,0,9.6,3,9.6,6.7L110.2,109.9L110.2,109.9z"/>
				<path class="st51" d="M109.7,109.8c0,3.6-4.3,6.6-9.5,6.6H48.3c-5.3,0-9.5-2.9-9.5-6.6V74c0-3.6,4.3-6.6,9.5-6.6h51.9
					c5.3,0,9.5,2.9,9.5,6.6V109.8z"/>
				<path class="st52" d="M109.3,109.7c0,3.5-4.2,6.4-9.4,6.4H48.7c-5.2,0-9.4-2.9-9.4-6.4V74.9c0-3.5,4.2-6.4,9.4-6.4h51.2
					c5.2,0,9.4,2.9,9.4,6.4C109.3,74.9,109.3,109.7,109.3,109.7z"/>
				<path class="st53" d="M108.8,109.6c0,3.4-4.2,6.2-9.3,6.2H49c-5.1,0-9.3-2.8-9.3-6.2V75.9c0-3.4,4.2-6.2,9.3-6.2h50.5
					c5.1,0,9.3,2.8,9.3,6.2V109.6z"/>
				<path class="st54" d="M108.4,109.5c0,3.3-4.1,6-9.2,6H49.3c-5.1,0-9.2-2.7-9.2-6V76.8c0-3.3,4.1-6,9.2-6h49.9
					c5.1,0,9.2,2.7,9.2,6C108.4,76.8,108.4,109.5,108.4,109.5z"/>
				<path class="st55" d="M107.9,109.4c0,3.2-4,5.8-9,5.8H49.6c-5,0-9-2.6-9-5.8V77.7c0-3.2,4-5.8,9-5.8h49.2c5,0,9,2.6,9,5.8
					L107.9,109.4L107.9,109.4z"/>
				<path class="st56" d="M107.5,109.3c0,3.1-4,5.6-8.9,5.6H50c-4.9,0-8.9-2.5-8.9-5.6V78.7c0-3.1,4-5.6,8.9-5.6h48.6
					c4.9,0,8.9,2.5,8.9,5.6V109.3z"/>
				<path class="st57" d="M107,109.3c0,3-3.9,5.4-8.8,5.4H50.3c-4.9,0-8.8-2.4-8.8-5.4V79.6c0-3,3.9-5.4,8.8-5.4h47.9
					c4.9,0,8.8,2.4,8.8,5.4V109.3z"/>
				<path class="st58" d="M106.6,109.2c0,2.9-3.9,5.3-8.7,5.3H50.6c-4.8,0-8.7-2.4-8.7-5.3V80.5c0-2.9,3.9-5.3,8.7-5.3h47.3
					c4.8,0,8.7,2.4,8.7,5.3C106.6,80.5,106.6,109.2,106.6,109.2z"/>
				<path class="st59" d="M106.1,109.1c0,2.8-3.8,5.1-8.6,5.1H51c-4.7,0-8.6-2.3-8.6-5.1V81.4c0-2.8,3.8-5.1,8.6-5.1h46.6
					c4.7,0,8.6,2.3,8.6,5.1L106.1,109.1L106.1,109.1z"/>
				<path class="st60" d="M105.7,109c0,2.7-3.8,4.9-8.4,4.9h-46c-4.7,0-8.4-2.2-8.4-4.9V82.4c0-2.7,3.8-4.9,8.4-4.9h46
					c4.7,0,8.4,2.2,8.4,4.9V109z"/>
				<path class="st61" d="M105.2,108.9c0,2.6-3.7,4.7-8.3,4.7H51.6c-4.6,0-8.3-2.1-8.3-4.7V83.3c0-2.6,3.7-4.7,8.3-4.7h45.3
					c4.6,0,8.3,2.1,8.3,4.7V108.9z"/>
				<path class="st62" d="M104.8,108.8c0,2.5-3.7,4.5-8.2,4.5H51.9c-4.5,0-8.2-2-8.2-4.5V84.2c0-2.5,3.7-4.5,8.2-4.5h44.6
					c4.5,0,8.2,2,8.2,4.5v24.6H104.8z"/>
				<path class="st63" d="M104.3,108.8c0,2.4-3.6,4.3-8.1,4.3h-44c-4.5,0-8.1-1.9-8.1-4.3V85.2c0-2.4,3.6-4.3,8.1-4.3h44
					c4.5,0,8.1,1.9,8.1,4.3V108.8z"/>
				<path class="st64" d="M103.9,108.7c0,2.3-3.6,4.1-8,4.1H52.6c-4.4,0-8-1.9-8-4.1V86.1c0-2.3,3.6-4.1,8-4.1h43.3
					c4.4,0,8,1.9,8,4.1C103.9,86.1,103.9,108.7,103.9,108.7z"/>
				<path class="st65" d="M103.4,108.6c0,2.2-3.5,4-7.8,4H52.9c-4.3,0-7.8-1.8-7.8-4V87c0-2.2,3.5-4,7.8-4h42.7c4.3,0,7.8,1.8,7.8,4
					C103.4,87,103.4,108.6,103.4,108.6z"/>
				<path class="st66" d="M103,108.5c0,2.1-3.5,3.8-7.7,3.8h-42c-4.3,0-7.7-1.7-7.7-3.8V88c0-2.1,3.5-3.8,7.7-3.8h42
					c4.3,0,7.7,1.7,7.7,3.8V108.5z"/>
				<path class="st67" d="M102.5,108.4c0,2-3.4,3.6-7.6,3.6H53.6c-4.2,0-7.6-1.6-7.6-3.6V88.9c0-2,3.4-3.6,7.6-3.6H95
					c4.2,0,7.6,1.6,7.6,3.6L102.5,108.4L102.5,108.4z"/>
				<path class="st68" d="M102.1,108.3c0,1.9-3.3,3.4-7.5,3.4H53.9c-4.1,0-7.5-1.5-7.5-3.4V89.8c0-1.9,3.3-3.4,7.5-3.4h40.7
					c4.1,0,7.5,1.5,7.5,3.4C102.1,89.8,102.1,108.3,102.1,108.3z"/>
			</g>
		</g>
		<g class="st69">
			
				<linearGradient id="SVGID_4_" gradientUnits="userSpaceOnUse" x1="74.2" y1="122.6" x2="74.2" y2="70.7" gradientTransform="matrix(1 0 0 -1 0 138)">
				<stop  offset="0" style="stop-color:#FFFFFF"/>
				<stop  offset="0.2182" style="stop-color:#FCFCFC"/>
				<stop  offset="0.3538" style="stop-color:#F4F4F4"/>
				<stop  offset="0.4671" style="stop-color:#E5E5E5"/>
				<stop  offset="0.5679" style="stop-color:#D1D1D1"/>
				<stop  offset="0.6605" style="stop-color:#B6B6B6"/>
				<stop  offset="0.7472" style="stop-color:#959595"/>
				<stop  offset="0.8292" style="stop-color:#6E6E6E"/>
				<stop  offset="0.9075" style="stop-color:#414141"/>
				<stop  offset="0.9803" style="stop-color:#0F0F0F"/>
				<stop  offset="1" style="stop-color:#000000"/>
			</linearGradient>
			<path class="st70" d="M115.3,15.4H33.1c-8.3,0-15.1,6.8-15.1,15.1v29.7c16.3,4.5,35.6,7.1,56.2,7.1c20.7,0,39.9-2.6,56.2-7.1
				V30.5C130.4,22.1,123.7,15.4,115.3,15.4z"/>
		</g>
		
			<linearGradient id="SVGID_5_" gradientUnits="userSpaceOnUse" x1="74.2" y1="122.6276" x2="74.2" y2="103.0824" gradientTransform="matrix(1 0 0 -1 0 138)">
			<stop  offset="0" style="stop-color:#FFFFFF"/>
			<stop  offset="5.874219e-03" style="stop-color:#F7F7F7"/>
			<stop  offset="3.627752e-02" style="stop-color:#D3D3D3"/>
			<stop  offset="7.048631e-02" style="stop-color:#B2B2B2"/>
			<stop  offset="0.1083" style="stop-color:#979797"/>
			<stop  offset="0.151" style="stop-color:#818181"/>
			<stop  offset="0.2009" style="stop-color:#707070"/>
			<stop  offset="0.2625" style="stop-color:#646464"/>
			<stop  offset="0.349" style="stop-color:#5E5E5E"/>
			<stop  offset="0.5892" style="stop-color:#5C5C5C"/>
		</linearGradient>
		<path class="st71" d="M33.1,19.8h82.2c8.3,0,15.1,6.8,15.1,15.1v-4.5c0-8.3-6.8-15.1-15.1-15.1H33.1c-8.3,0-15.1,6.8-15.1,15.1
			v4.5C18,26.6,24.7,19.8,33.1,19.8z"/>
		<g class="st72">
			
				<linearGradient id="SVGID_6_" gradientUnits="userSpaceOnUse" x1="74.15" y1="124.3" x2="74.15" y2="8.4" gradientTransform="matrix(1 0 0 -1 0 138)">
				<stop  offset="0" style="stop-color:#0D0D0D"/>
				<stop  offset="0.2757" style="stop-color:#666666"/>
				<stop  offset="0.3135" style="stop-color:#000000"/>
				<stop  offset="0.6216" style="stop-color:#404040"/>
				<stop  offset="0.9405" style="stop-color:#383838"/>
				<stop  offset="1" style="stop-color:#000000"/>
			</linearGradient>
			<path class="st73" d="M32.2,129.6c-8.8,0-16-7.1-16-16l0,0V29.7c0-8.8,7.2-16,16-16l0,0h83.9c8.8,0,16,7.1,16,16l0,0v83.9
				c0,8.8-7.1,16-16,16l0,0H32.2L32.2,129.6z M17.4,29.7v83.9c0,8.2,6.6,14.8,14.8,14.8l0,0h83.9c8.2,0,14.8-6.6,14.8-14.8l0,0V29.7
				c0-8.2-6.6-14.8-14.8-14.8l0,0H32.2C24,14.9,17.4,21.5,17.4,29.7L17.4,29.7z"/>
		</g>
		<path class="st0" d="M112.5,84.8c-8.7-10.4-22.2,11.5-29.4,16.3c-5,3.3-12.6,3.5-17.9,0.4c-7.3-4.3-5.1-14.5,2.6-17.1
			c6.8-2.3,18.8,4.9,23.2-2.3c5.4-8.9-12.9-11-18.3-10.8c-9.8,0.4-19.1,3.5-24.9,10.9c-6.2,7.9-4.8,17.6,2.1,24.8
			c7,6.8,17.1,9.4,27.2,8.6c2.5-0.2,6.9-1.3,10.3-3.1C93.9,108.9,114.2,86.9,112.5,84.8z M48.6,77c3.4,0.7-3.2-18.2-3.6-20.8
			c-0.5-3.1-1.7-7.6-4.8-8c-3.6-0.5-4.6,3.6-3.9,7.2C37.1,59.2,45.5,76.4,48.6,77z M76.6,67.3c5.2,0.7,4.9-24.4,4.9-27.8
			c0-3.1,1.2-11.6-2.9-12.4c-5.7-1.1-6.3,6.4-6.4,10.4C72.4,41.6,71.1,66.5,76.6,67.3z M89.1,71.3c5.7,2.4,10.1-23,10.7-26.3
			s0.7-10.4-4.9-8.1c-2.9,1.1-3.4,5.7-3.8,8.3C90.3,48.5,84.7,69.5,89.1,71.3z M61.6,69.2c6.4,0.5,0.4-25.1-0.1-28.5
			c-0.5-3.5-2.9-10.4-7.7-6.4c-2.4,2-1.3,6.8-0.9,9.4C53.3,47.2,56.6,68.8,61.6,69.2z"/>
	</g>
</g>
</svg>
