<?xml version="1.0" encoding="utf-8"?>
<!-- Generator: Adobe Illustrator 21.0.2, SVG Export Plug-In . SVG Version: 6.00 Build 0)  -->
<svg version="1.1" id="Layer_3" xmlns="http://www.w3.org/2000/svg" xmlns:xlink="http://www.w3.org/1999/xlink" x="0px" y="0px"
	 viewBox="0 0 671 212" style="enable-background:new 0 0 671 212;" xml:space="preserve">
<style type="text/css">
	.st0{fill:#D95947;}
</style>
<g id="Page-1">
	<g id="craft-cms-logo">
		<path id="Shape" class="st0" d="M347.5,43.5L347.5,43.5l-21.7,17l-1.6,8.5h-22.4l6.5-34.4c1.5-13,21.3-9,24.2-8.3l3.2-16.6
			c-35.5-13.6-45.9,24.9-45.9,24.9L283.3,69h-0.1L261,86.4h19l-20.9,109.8h18.5l20.9-109.8h22.4l-8.2,43
			c-5.2,31.3,26.1,27.9,36.1,25.8l3.1-16.4c-23.9,5.4-20.8-9.5-20.8-9.5l8.2-43h28.5l3.3-17.4h-28.5L347.5,43.5L347.5,43.5z"/>
		<path id="Shape_1_" class="st0" d="M201,69.4l-3.3,18.5c45.2-19.7,37.6,14.6,37.6,14.6l-0.9,5.2c0,0-26.5-13.6-45,1.5
			c0,0-10.9,7.2-10.9,21.7c0,14.5,13.3,22.3,13.3,22.3s20,10.5,35.6-6.3l-1.7,7.8H243l11-52.1C262.2,51.2,201,69.4,201,69.4
			L201,69.4z M230,131.5c-19.2,19.7-31.6,6.8-31.6,6.8c-8.3-8.1,0.9-16.5,0.9-16.5c12.7-11.6,32.2,1.1,32.2,1.1L230,131.5L230,131.5
			z"/>
		<path id="Shape_2_" class="st0" d="M185.3,69c-14.3,0.2-27.2,8.1-27.2,8.1l1.7-7.8h-17.1L127,154.9h17.5l10.6-56.3
			c7.8-15.9,27.2-11,27.2-11L185.3,69L185.3,69z"/>
		<path id="Shape_3_" class="st0" d="M118.6,32.4c0.9,0.7,1.7,1.4,2.5,2.1l13.3-10.4l0.4-0.5c-2-2.1-4.2-4-6.6-5.8
			C97.8-5.3,51.8,4.4,25.4,39.2C-0.9,74.1,2.5,121,33,144c24.9,18.8,60.1,15.8,86.5-4.9l0-0.1l-12.6-9.9
			c-19.6,12.6-43.9,13.5-61.4,0.2c-23.4-17.7-26-53.7-5.8-80.5C59.8,22.1,95.2,14.7,118.6,32.4L118.6,32.4z"/>
		<path id="Shape_4_" class="st0" d="M405,86.6c3.1-3.3,6.9-5.9,11.3-7.8c4.4-1.9,9.3-2.9,14.6-2.9c4.7,0,8.9,0.7,12.7,2.1
			c3.8,1.4,7.4,3.2,10.7,5.3l3.4-5c-3.7-2.4-7.8-4.4-12.3-5.9c-4.5-1.5-9.3-2.3-14.5-2.3c-6.1,0-11.8,1.1-17,3.4
			c-5.2,2.3-9.7,5.4-13.5,9.3c-3.8,3.9-6.7,8.5-8.8,13.8c-2.1,5.3-3.1,10.9-3.1,16.9c0,6,1.1,11.6,3.2,16.8
			c2.1,5.2,5.1,9.7,8.8,13.6c3.7,3.9,8.2,6.9,13.4,9.1c5.2,2.2,10.9,3.3,17,3.3c5.2,0,10-0.8,14.5-2.3s8.6-3.5,12.3-5.9l-3.4-5
			c-3.3,2.1-6.9,3.9-10.7,5.3c-3.8,1.4-8,2.1-12.7,2.1c-5.3,0-10.2-1-14.6-2.9c-4.4-1.9-8.2-4.6-11.3-8c-3.1-3.4-5.6-7.4-7.3-12
			c-1.7-4.6-2.6-9.5-2.6-14.7c0-5.2,0.9-10.1,2.6-14.6C399.4,93.8,401.9,89.9,405,86.6L405,86.6z"/>
		<path id="Shape_5_" class="st0" d="M588.3,76.8c-2.3-2.3-5-4-8-5.1c-3-1.1-6.2-1.6-9.5-1.6c-6.9,0-13.4,1.9-19.4,5.6
			c-6,3.7-11,8.1-15,13.2c-1.5-6.4-4.3-11.1-8.6-14.2c-4.3-3.1-9.2-4.6-14.8-4.6c-3.5,0-6.8,0.5-10,1.5c-3.2,1-6.2,2.3-8.9,3.9
			c-2.7,1.6-5.3,3.4-7.7,5.5c-2.4,2.1-4.5,4.2-6.4,6.3V71.7h-6.2v83h6.4V94.1c4.5-5.1,9.4-9.3,14.7-12.8c5.3-3.5,11-5.2,17.1-5.2
			c13.1,0,19.6,7.6,19.6,22.8v55.8h6.4V95.1c4.3-5.7,9.1-10.3,14.6-13.8c5.5-3.5,11.2-5.2,17.2-5.2c13.1,0,19.6,7.6,19.6,22.8v55.8
			h6.4V98.3c0-4.9-0.7-9.2-2-12.7C592.4,82.1,590.6,79.1,588.3,76.8L588.3,76.8z"/>
		<path id="Shape_6_" class="st0" d="M662.8,122.1c-2.1-2.8-4.8-5.1-8.1-6.9c-3.3-1.8-6.8-3.4-10.5-4.7c-3.7-1.3-7.2-2.8-10.5-4.4
			c-3.3-1.6-6-3.6-8.1-5.9c-2.1-2.3-3.2-5.5-3.2-9.5c0-3.9,1.6-7.4,4.7-10.5c3.1-3.1,7.9-4.7,14.3-4.7c3.9,0,7.4,0.6,10.7,1.8
			c3.3,1.2,6.7,3.1,10.3,5.8l3-5c-3.7-2.7-7.6-4.7-11.5-6c-3.9-1.3-8.1-2-12.5-2c-4,0-7.5,0.6-10.6,1.8s-5.7,2.8-7.8,4.8
			c-2.1,2-3.8,4.3-4.9,6.8c-1.1,2.5-1.7,5.1-1.7,7.8c0,4.7,1.1,8.4,3.2,11.2c2.1,2.8,4.8,5.1,8.1,7c3.3,1.9,6.8,3.5,10.5,4.8
			c3.7,1.3,7.2,2.8,10.5,4.5c3.3,1.7,6,3.7,8.1,6c2.1,2.3,3.2,5.5,3.2,9.5c0,4.7-1.8,8.6-5.4,11.8c-3.6,3.2-8.4,4.8-14.4,4.8
			c-4.8,0-9.3-0.9-13.4-2.6c-4.1-1.7-8.1-3.9-12-6.6l-3,4.8c4.3,2.9,8.7,5.3,13.4,7.1c4.7,1.8,9.7,2.7,15,2.7c4,0,7.6-0.6,10.7-1.9
			c3.1-1.3,5.8-2.9,8.1-5c2.3-2.1,4-4.5,5.2-7.3c1.2-2.8,1.8-5.7,1.8-8.8C666,128.6,664.9,124.9,662.8,122.1L662.8,122.1z"/>
	</g>
</g>
</svg>
