<?xml version="1.0" encoding="utf-8"?>
<!-- Generator: Adobe Illustrator 21.1.0, SVG Export Plug-In . SVG Version: 6.00 Build 0)  -->
<svg version="1.1" id="Grav-logo.fw-Page_x25_201" xmlns="http://www.w3.org/2000/svg" xmlns:xlink="http://www.w3.org/1999/xlink"
	 x="0px" y="0px" viewBox="0 0 671 186" style="enable-background:new 0 0 671 186;" xml:space="preserve">
<style type="text/css">
	.st0{fill:none;}
	.st1{fill:#00598E;}
	.st2{fill:#FFFFFF;}
	.st3{fill:#0073BA;}
	.st4{fill:#004975;}
	.st5{fill:#93C5E4;}
	.st6{fill:#2AA9E0;}
</style>
<path class="st0" d="z"/>
<path class="st0" d="z"/>
<path class="st1" d="M135.9,35.9c-9.3-5.8-18-8.1-26.8-13.8c-5.4-3.7-13-12.4-19.3-20c-1.2,12.1-4.9,17-9.1,20.5
	c-8.9,7-14.5,9.1-22.2,13.3c-6.5,3.3-41.7,24.3-41.7,69.5s38,78.4,80.2,78.4s78.8-30.6,78.8-77S141.5,39.4,135.9,35.9z"/>
<path class="st2" d="M121.7,144.6c2.8,0,5.8,0.2,7.9,1.6c2.1,1.4,3.3,4.6,4,6.3c0.7,1.8,0,2.8-1.4,3.5c-1.2,0.7-1.4,0.4-2.6-1.9
	s-2.3-4.6-8.4-4.6s-8.1,2.1-11,4.6c-3,2.5-4,3.3-5.1,1.9c-1.1-1.4-0.7-2.8,1.2-4.6c1.9-1.8,5.1-4.6,8.1-5.8
	C117.3,144.4,118.9,144.6,121.7,144.6L121.7,144.6z"/>
<path class="st2" d="M92.6,164.6c3.5,2.8,8.8,5.1,20,5.1s19.1-3.2,22.6-5.8c1.6-1.2,2.3-0.2,2.5,0.5c0.2,0.7,0.5,1.8-0.7,3
	c-0.9,0.9-8.9,6.5-18.4,7.4c-9.5,0.9-22.2,1.4-29.9-5.6c-1.2-1.2-0.9-3,0-3.7c0.9-0.7,1.6-1.2,2.6-1.2S92.1,164.2,92.6,164.6
	L92.6,164.6z"/>
<path class="st3" d="M49.7,151.3c13.3-0.2,15.8-2.5,27.5-7.7c63.4-28.4,75.1-54.3,77.4-60.2c2.3-6,5.6-15.6,2.1-26.3
	c-0.7-2.1-1.2-3.7-1.5-5c-8.4-9.4-16.8-14.6-19.3-16.1c-9.1-5.8-18-8.1-26.8-13.8c-5.4-3.5-13-12.4-19.3-20
	c-1.2,12.1-4.7,17.2-9.1,20.5c-8.9,7-14.5,9.1-22.2,13.3c-6.5,3.5-41.7,24.3-41.7,69.5c0,14.4,3.9,27.6,10.5,38.9l1.7-0.1
	C32.8,147.6,38.5,151.5,49.7,151.3z"/>
<path class="st4" d="M135.9,35.9c-9.1-5.8-18-8.1-26.8-13.8c-5.4-3.5-13-12.4-19.3-20c-1.2,12.1-4.7,17.2-9.1,20.5
	c-8.9,7-14.5,9.1-22.2,13.3c-6.5,3.5-41.7,24.3-41.7,69.5c0,14.4,3.9,27.6,10.5,38.9c14.2,24.1,40.9,39.5,69.7,39.5
	c42.2,0,78.8-30.6,78.8-77c0-25.5-10.3-43.3-20.6-54.8C146.7,42.6,138.4,37.5,135.9,35.9z M157.2,56.4
	c11.5,14.4,17.3,31.3,17.3,50.4c0,11.1-2.1,21.5-6.3,31.1c-3.9,9.1-9.6,17.1-16.9,23.9c-14.4,13.4-33.6,20.8-54.3,20.8
	c-10.2,0-20.3-2-29.8-5.8c-9.4-3.8-17.9-9.2-25.2-16.1c-15.4-14.6-23.9-34.2-23.9-55.2c0-18.7,6.1-35.4,18.1-49.5
	c9.2-10.8,19.1-16.8,22.9-18.8c1.9-1,3.6-1.9,5.3-2.8c5.3-2.7,10.3-5.3,17.1-10.6c3.7-2.8,7.6-7.2,9.2-18.4
	c5.8,6.9,12.5,14.6,17.6,17.9c4.6,3,9.2,5.1,13.7,7.1c4.3,1.9,8.7,3.9,13,6.7l0.2,0.1C148.1,45.1,154.9,53.6,157.2,56.4z"/>
<path class="st5" d="M90.7,5.6c2.5,7.2,2.1,10.9,2.1,12.4c0,1.6-0.9,5.8-3.7,7.9c-1.2,0.9-1.6,1.6-1.6,1.8c0,0.7,1.6,1.2,1.6,2.8
	c0,1.9-0.9,5.8-10.2,15.1S56.4,63,46.1,68.1s-15.2,4.7-16.6,2.3c-1.4-2.5,0.5-7.9,7-15.1s27-17.5,27-17.5L89,20l1.4-6.8"/>
<path class="st2" d="M90.7,5.4c-1.6,11.6-5.1,15.1-9.8,18.7c-7.9,6-15.6,9.6-17.3,10.5C59,36.9,42.6,46,34,59.2c-2.6,4,0,5.6,0.5,6
	c0.5,0.4,6.5,1.1,19.3-6.7s18.4-12.2,25.6-19.7c3.9-4,4.4-6.3,4.4-7.4c0-1.2-0.9-1.8-2.3-2.1c-0.7-0.2-0.9-0.5,0-1.1
	c0.9-0.5,4.5-2.3,5.4-3s5.1-3.5,5.3-8.1S91.9,9.5,90.7,5.4L90.7,5.4z"/>
<path class="st2" d="M51.3,132.7c0.2-13.7,13-26.4,29.1-26.6c20.5-0.2,34.7,20.3,45,20.1c8.8-0.2,25.6-17.3,33.8-17.3
	c8.8,0,11.2,9.1,11.2,14.5s-1.8,15.2-6,21.4c-4.2,6.1-6.8,8.4-11.7,8.1c-6.3-0.5-18.9-20.1-27-20.5c-10.2-0.4-32.2,21.2-49.5,21.2
	c-10.5,0-13.7-1.6-17.2-3.9C53.8,146,51.1,140.4,51.3,132.7L51.3,132.7z"/>
<path class="st0" d="M156.7,57.1c3.5,10.7,0.2,20.3-2.1,26.3s-14,31.9-77.4,60.2c-11.7,5.3-14.2,7.5-27.5,7.7
	c-11.2,0.2-17-3.7-20.7-7l-1.7,0.1c14.2,24.1,40.9,39.5,69.7,39.5c42.2,0,78.8-30.6,78.8-77c0-25.5-10.3-43.3-20.6-54.8
	C155.5,53.4,156,55,156.7,57.1z"/>
<g>
	<path class="st6" d="M408,73.5h-18.2l0,34c0,9.9-4.3,18-14.2,18c-9.9,0-14.2-8-14.2-18v-34h-18.1l0,34c0,19.6,12.6,35.6,32.3,35.6
		c19.6,0,32.5-15.9,32.5-35.6L408,73.5z"/>
	<rect x="571.9" y="52.8" class="st6" width="18.1" height="88.6"/>
	<g>
		<path class="st6" d="M603.4,56v-3.2h14.1V56h-5.2v14h-3.8V56H603.4z"/>
		<path class="st6" d="M624.8,52.9l4,11.8h0l3.8-11.8h5.3v17.2h-3.5V57.9h0l-4.2,12.2h-2.9L623.1,58h0v12.1h-3.5V52.9H624.8z"/>
	</g>
	<path class="st6" d="M328.5,72.8c-15.6-3.6-25.4,11.9-25.8,12.7c-0.2,0.4-0.2,0.6-0.9,0.6c-0.6,0-0.6-0.6-0.6-0.6l-1.9-11.9h-16.2
		v67.6h18.2v-36.6c0-3,8.1-17.3,23.7-13.6c7.9,1.9,11.2,5.2,11.2,5.2s0-13.1,0-20.6C333.1,74.1,331.1,73.4,328.5,72.8z"/>
	<path class="st6" d="M432.6,163.6v-24.3c0,0,0,0,0,0l0-9.1c0,0,0-0.7,0.7-0.7c0.6,0,0.7,0.4,0.9,0.7c1.4,3.4,9,16.5,25.8,12.4
		c15.1-4.2,26.1-18.1,26.1-34.5c0-19.8-16-35.8-35.8-35.8c-19.8,0-35.8,16-35.8,35.8c0,0,0,49,0,55.5H432.6z M450.3,89.9
		c10,0,18.1,8.1,18.1,18.1c0,10-8.1,18.1-18.1,18.1c-10,0-18.1-8.1-18.1-18.1C432.1,98,440.2,89.9,450.3,89.9z"/>
	<path class="st6" d="M546.4,141.3h18.2V108c0-19.8-16-35.8-35.8-35.8c-19.8,0-35.8,16-35.8,35.8c0,16.4,11,30.2,26.1,34.5
		c16.8,4.1,24.4-9,25.8-12.4c0.1-0.4,0.3-0.7,0.9-0.7c0.7,0,0.7,0.7,0.7,0.7 M546.9,108c0,10-8.1,18.1-18.1,18.1
		c-10,0-18.1-8.1-18.1-18.1c0-10,8.1-18.1,18.1-18.1C538.8,89.9,546.9,98,546.9,108z"/>
	<g>
		<path class="st6" d="M226,141.2h-20.7V52.7h22.2c26.9,0,47.2,4.9,47.2,44.2C274.7,135.9,253.2,141.2,226,141.2z M231,68.1h-7.3
			v57.8l7.5,0.2c15.4,0,25.3-1.4,25.3-29.1C256.4,70.4,247.7,68.1,231,68.1z"/>
	</g>
</g>
</svg>
