<?xml version="1.0" encoding="utf-8"?>
<!-- Generator: Adobe Illustrator 21.0.2, SVG Export Plug-In . SVG Version: 6.00 Build 0)  -->
<svg version="1.1" id="Layer_2" xmlns="http://www.w3.org/2000/svg" xmlns:xlink="http://www.w3.org/1999/xlink" x="0px" y="0px"
	 viewBox="0 0 671 186" style="enable-background:new 0 0 671 186;" xml:space="preserve">
<style type="text/css">
	.st0{fill:#7AC143;}
	.st1{fill:#F9A541;}
	.st2{fill:#F44321;}
	.st3{fill:#5091CD;}
	.st4{fill:#DEDEDE;}
</style>
<path id="j-green_7_" class="st0" d="M55.5,93.7l-3-3c-9.3-9.3-12.2-22.6-8.7-34.4c-9.3-2.1-16.3-10.4-16.3-20.4
	c0-11.5,9.4-20.9,20.9-20.9c10.4,0,19,7.6,20.6,17.5c11.3-2.6,23.6,0.4,32.4,9.2l1.2,1.2L87.3,58.3l-1.2-1.2c-5-5-13.1-5-18.1,0
	c-5,5-5,13.2,0,18.1l3,3l15.4,15.4l16.3,16.3l-15.4,15.4l-16.3-16.3L55.5,93.7L55.5,93.7z"/>
<path id="j-orange_7_" class="st1" d="M72.8,76.5l16.3-16.3l15.4-15.4l3-3c9.3-9.3,22.5-12.2,34.3-8.7c1.4-10.2,10.1-18,20.7-18
	c11.5,0,20.9,9.4,20.9,20.9c0,10.6-7.9,19.4-18.1,20.7c3.4,11.7,0.4,24.8-8.8,34.1l-1.2,1.2l-15.4-15.4l1.2-1.2c5-5,5-13.1,0-18.1
	c-5-5-13.1-5-18.1,0l-3,3l-15.4,15.4L88.2,91.9L72.8,76.5L72.8,76.5z"/>
<path id="j-red_7_" class="st2" d="M142.2,154.3c-11.9,3.6-25.3,0.8-34.7-8.6l-1.2-1.2l15.4-15.4l1.2,1.2c5,5,13.1,5,18.1,0
	c5-5,5-13.1,0-18.1l-3-3l-15.4-15.4l-16.3-16.3L121.8,62L138,78.3l15.4,15.4l3,3c8.9,8.9,11.9,21.3,9.2,32.7
	c10.2,1.4,18,10.2,18,20.7c0,11.5-9.4,20.9-20.9,20.9C152.6,171,144.2,163.8,142.2,154.3L142.2,154.3z"/>
<path id="j-blue_7_" class="st3" d="M136.2,111l-16.3,16.3l-15.4,15.4l-3,3c-8.9,8.9-21.5,11.9-32.9,9.1
	c-2.1,9.3-10.4,16.2-20.4,16.2c-11.5,0-20.9-9.4-20.9-20.9c0-9.9,6.9-18.2,16.1-20.3c-2.9-11.5,0.1-24.1,9.1-33.1l1.2-1.2L69.1,111
	l-1.2,1.2c-5,5-5,13.1,0,18.1c5,5,13.2,5,18.1,0l3-3l15.4-15.4l16.3-16.3L136.2,111L136.2,111z"/>
<path class="st4" d="M258.5,67.4v47c0,4.2,0.2,8-3.5,11c-3.5,2.8-9.4,3.7-15.6,3.8c-9.6,0.1-19.8-2.2-19.8-2.2l-2.3,6
	c0,0,14.2,3,24.6,3.2c8.8,0.2,16.3-1.8,20.6-6.7c3.5-4,4.4-8.4,4.3-16.1V67.4H258.5"/>
<path class="st4" d="M328.5,93.3c-6.4-3.5-14-5.2-22.6-5.2c-8.6,0-16.2,1.8-22.6,5.2h0c-8.1,4.4-12.2,10.8-12.2,18.9
	c0,8.1,4.1,14.5,12.2,18.8c6.4,3.5,14,5.2,22.6,5.2c8.6,0,16.2-1.7,22.6-5.2c8-4.4,12.1-10.7,12.1-18.9
	C340.6,104.1,336.6,97.7,328.5,93.3 M323.6,126.3c-4.9,2.8-10.9,4.2-17.7,4.2c-7,0-13-1.4-17.8-4.1h0c-5.9-3.3-8.7-7.9-8.7-14.2
	c0-6.2,2.9-10.9,8.7-14.2c4.8-2.7,10.9-4.1,17.8-4.1c6.9,0,12.9,1.4,17.8,4.1c5.7,3.3,8.7,8.1,8.7,14.2
	C332.4,118.3,329.5,123,323.6,126.3z"/>
<path class="st4" d="M402.4,93.3c-6.4-3.5-14-5.2-22.6-5.2c-8.6,0-16.2,1.8-22.6,5.2h0c-8.1,4.4-12.2,10.8-12.2,18.9
	c0,8.1,4.1,14.5,12.2,18.8c6.4,3.5,14,5.2,22.6,5.2c8.6,0,16.2-1.7,22.6-5.2c8-4.4,12.1-10.7,12.1-18.9
	C414.4,104.1,410.4,97.7,402.4,93.3 M397.5,126.3c-4.9,2.8-10.9,4.2-17.7,4.2c-7,0-13-1.4-17.8-4.1c-5.9-3.3-8.7-7.9-8.7-14.2
	c0-6.2,2.9-10.9,8.7-14.2c4.8-2.7,10.9-4.1,17.8-4.1c6.9,0,12.9,1.4,17.8,4.1c5.7,3.3,8.7,8.1,8.7,14.2
	C406.2,118.3,403.3,123,397.5,126.3z"/>
<path class="st4" d="M504.2,92.1c-4.5-2.7-10.3-4.1-17.3-4.1c-8.8,0-15.9,2.8-21.3,8.1c-5.2-5.4-12.3-8.1-21.2-8.1
	c-7.2,0-13.1,1.5-17.6,4.4c0-1.1,0-3.7,0-3.7h-7.9v46.7h7.9v-32c0.5-2.3,2.1-4.4,4.5-6.2c3.3-2.3,7.6-3.5,12.8-3.5
	c4.6,0,8.6,1,11.8,2.8c3.9,2.2,5.7,5.3,5.7,9.4v29.4h7.8v-29.4c0-4.1,1.9-7.2,5.7-9.5c3.3-1.8,7.3-2.8,12-2.8c4.7,0,8.7,1,11.9,2.8
	c3.8,2.2,5.7,5.3,5.7,9.4v29.4h7.9v-28.3C512.7,100.6,509.9,95.5,504.2,92.1"/>
<polyline class="st4" points="519.1,67.4 519.1,135.5 527.1,135.5 527.1,67.4 519.1,67.4 "/>
<polyline class="st4" points="615.6,67.4 615.6,120.1 623.6,120.1 623.6,67.4 615.6,67.4 "/>
<path class="st4" d="M594.9,88.8c0,0,0,6.4,0,8c-6.8-5.7-15.8-8.7-26.8-8.7c-8.9,0-16.6,1.7-22.7,5c-7.9,4.3-11.9,10.7-11.9,19.1
	c0,8.3,4.1,14.6,12.1,18.9c6.3,3.4,14,5.1,22.7,5.1c4.4,0,8.6-0.5,12.6-1.5c5.6-1.5,10.3-3.6,13.9-6.5c0,1.6,0,7.2,0,7.2h7.9V88.8
	H594.9 M541.7,112.2c0-6.2,2.9-11,8.7-14.2c4.9-2.7,10.9-4.1,17.9-4.1c8.7,0,15.5,2.1,20.2,6.3c4.2,3.7,6.3,8.5,6.3,14.3
	c0,0,0,5.1,0,5.5c-3.3,3.7-8.2,6.6-14.5,8.6c-3.7,1.2-7.7,1.8-12,1.8c-7.2,0-13.2-1.3-18-4C544.5,123.3,541.7,118.6,541.7,112.2z"/>
<path class="st4" d="M619.7,126.7c-5.5,0-6.4,2.9-6.4,4.6c0,1.8,0.8,4.7,6.4,4.7c5.5,0,6.3-2.9,6.3-4.7
	C626,129.6,625.2,126.7,619.7,126.7z"/>
<path class="st4" d="M648.3,75.8c0,4.6-3,8.5-8.4,8.5c-5.4,0-8.4-3.9-8.4-8.5c0-4.6,3-8.5,8.4-8.5C645.3,67.3,648.3,71.2,648.3,75.8
	z M633.3,75.8c0,3.9,2.4,6.9,6.6,6.9c4.2,0,6.6-3.1,6.6-6.9c0-3.9-2.4-6.9-6.6-6.9C635.7,68.9,633.3,71.9,633.3,75.8L633.3,75.8z
	 M641.5,76.8c3.3-0.6,3-5.5-0.8-5.5h-4V80h1.6v-3h1.5l2.4,3h1.8v-0.3L641.5,76.8L641.5,76.8z M640.7,72.8c2,0,2,2.8,0,2.8h-2.4v-2.8
	H640.7z"/>
</svg>
