<?xml version="1.0" encoding="utf-8"?>
<!-- Generator: Adobe Illustrator 21.1.0, SVG Export Plug-In . SVG Version: 6.00 Build 0)  -->
<svg version="1.1" id="Layer_3" xmlns="http://www.w3.org/2000/svg" xmlns:xlink="http://www.w3.org/1999/xlink" x="0px" y="0px"
	 viewBox="0 0 671 257" style="enable-background:new 0 0 671 257;" xml:space="preserve">
<style type="text/css">
	.st0{fill:#FF0200;}
	.st1{fill:#EEEEEE;}
</style>
<g>
	<path class="st0" d="M110.4,9.7L3.9,70.2v120.9l106.5,60.4l106.5-60.4V70.2L110.4,9.7z M157.9,133.2L128,149.3v2.2h29.9v23.3h-95
		v-23.3h29.9v-2.2l-29.9-16.1v-28.9l47.5,25.6l47.5-25.6V133.2z"/>
	<g>
		<path class="st1" d="M326.2,70.1v71.7l40-38.3h19.3l-34.7,31.9l37.3,55.7h-18.3l-30-45.8l-13.6,12.5V191h-14.4v-121H326.2z"/>
		<path class="st1" d="M399.8,87.7V70.1h14.4v17.6H399.8z M414.2,103.4V191h-14.4v-87.6H414.2z"/>
		<path class="st1" d="M449.6,103.4v18.5h0.3c3.5-7.1,7.8-12.4,12.9-15.8c5.1-3.4,11.5-5,19.3-4.7v15.3c-5.8,0-10.7,0.8-14.7,2.4
			c-4.1,1.6-7.3,3.9-9.8,6.9c-2.5,3-4.3,6.8-5.4,11.1c-1.1,4.3-1.7,9.4-1.7,15v39H436v-87.6H449.6z"/>
		<path class="st1" d="M507.9,70.1v45.2h0.3c2.4-4.9,6.1-8.4,11.2-10.6c5.1-2.2,10.7-3.3,16.8-3.3c6.8,0,12.7,1.2,17.7,3.7
			c5,2.5,9.2,5.8,12.5,10.1c3.3,4.2,5.8,9.1,7.5,14.7c1.7,5.5,2.5,11.4,2.5,17.6c0,6.2-0.8,12.1-2.5,17.6
			c-1.6,5.5-4.1,10.4-7.5,14.5c-3.3,4.1-7.5,7.4-12.5,9.7c-5,2.4-10.9,3.6-17.5,3.6c-2.1,0-4.5-0.2-7.2-0.7
			c-2.7-0.5-5.3-1.2-7.9-2.2c-2.6-1-5.1-2.4-7.4-4.2c-2.3-1.7-4.3-3.9-5.8-6.5h-0.3V191h-14.4v-121H507.9z M559.7,134.5
			c-1.1-3.9-2.7-7.4-4.9-10.4c-2.2-3.1-5-5.5-8.5-7.3c-3.4-1.8-7.5-2.7-12.1-2.7c-4.9,0-9,1-12.4,2.9c-3.4,1.9-6.2,4.4-8.3,7.5
			c-2.1,3.1-3.7,6.6-4.7,10.6c-1,4-1.4,8-1.4,12c0,4.3,0.5,8.4,1.5,12.5c1,4,2.6,7.5,4.8,10.6c2.2,3.1,5.1,5.5,8.6,7.4
			c3.5,1.9,7.7,2.8,12.7,2.8c5,0,9.1-1,12.5-2.9c3.3-1.9,6-4.5,8-7.6c2-3.2,3.5-6.8,4.4-10.8c0.9-4.1,1.4-8.2,1.4-12.5
			C561.3,142.4,560.7,138.4,559.7,134.5z"/>
		<path class="st1" d="M622.9,213.4c-1.6,2.9-3.4,5.3-5.4,7.2c-2,1.9-4.2,3.2-6.5,4.1c-2.4,0.8-5.2,1.3-8.5,1.3
			c-1.7,0-3.4-0.1-5.1-0.3c-1.7-0.2-3.3-0.6-4.9-1.2v-13.2c1.4,0.4,2.7,0.9,4.2,1.4c1.4,0.4,2.9,0.7,4.3,0.7c2.9,0,5.3-0.7,7.1-2
			c1.8-1.4,3.4-3.3,4.7-5.9l5.9-14.7L584,103.4h16.3l25.6,71.7h0.3l24.6-71.7H666l-38.1,99.1C626.2,206.9,624.5,210.5,622.9,213.4z"
			/>
	</g>
</g>
</svg>
