<?xml version="1.0" encoding="UTF-8"?>
<svg width="1200pt" height="1200pt" version="1.1" viewBox="0 0 1200 1200" xmlns="http://www.w3.org/2000/svg">
 <path d="m1139.3 627.76h-144.09l-63.852 262.36c-6.7578 28.379-47.027 28.367-53.844 0.26562l-111.29-457.29-41.676 171.2c-2.0742 13.285-13.559 23.449-27.422 23.449l-172.53-0.003906-63.852 262.36c-6.7578 28.379-47.027 28.367-53.844 0.26562l-111.29-457.27-41.664 171.2c-2.0742 13.285-13.559 23.449-27.422 23.449h-165.82c14.484 286.04 251.04 512.26 539.29 512.26s524.81-226.22 539.29-512.24zm-1078.6-55.516c14.484-286.01 251.05-512.24 539.3-512.24s524.82 226.23 539.3 512.24h-165.82v0.085937c-12.492-0.011719-23.82 8.4961-26.891 21.168l-42.203 173.39-111.23-457.01c-6.7578-28.379-47.027-28.367-53.844-0.26562l-63.926 262.63h-172.53c-13.859 0-25.355 10.164-27.422 23.449l-41.676 171.2-111.23-457.01c-6.7578-28.379-47.027-28.367-53.844-0.26562l-63.926 262.63-144.08 0.003906z" fill-rule="evenodd"/>
</svg>
