<?xml version="1.0" encoding="UTF-8"?>
<svg width="1200pt" height="1200pt" version="1.1" viewBox="0 0 1200 1200" xmlns="http://www.w3.org/2000/svg">
 <path d="m895.32 650.16c-63.84-13.078-124.08 1.9219-170.76 35.039-33.48 23.641-76.441 28.199-113.16 9.9609l-18.961-9.6016c-43.199-21.48-68.039-66.48-67.801-114.72l0.003906-0.83984c0-1.0781-0.23828-2.3984-0.23828-3.4805-0.83984-46.68 23.641-90.121 65.641-111l84.121-42.121c32.16-16.078 69.961-14.52 101.52 2.6406 29.762 15.84 64.922 22.441 102.12 15.84 64.078-11.281 115.56-63.238 126.72-127.32 16.32-95.879-55.199-179.76-147.12-184.32-55.801-2.8789-106.68 28.441-138.24 74.762-14.398 21.121-21.961 41.039-24.961 60.238-5.8789 34.801-27.359 64.801-58.68 80.398l-120.84 60.359c-30.602 15.238-66.719 15.48-97.078-0.23828-36.961-18.961-80.641-26.52-126.48-17.641-77.52 14.762-139.92 77.398-154.32 155.16-22.684 123.84 72.234 232.32 192.23 232.32 32.16 0 62.762-8.0391 89.52-21.961 30-15.602 65.879-14.762 96 0.48047l60.84 30.48c35.16 17.641 55.801 53.879 56.762 93.238 0.60156 22.199 4.8008 45.359 13.922 69.359 30.48 78.48 102.6 136.08 186.48 142.32 141 10.922 256.8-114.12 230.28-257.76-15.605-85.078-83.043-154.2-167.52-171.6z"/>
</svg>
