<?xml version="1.0" encoding="UTF-8"?>
<svg width="1200pt" height="1200pt" version="1.1" viewBox="0 0 1200 1200" xmlns="http://www.w3.org/2000/svg">
 <g>
  <path d="m960.33 257.75h-720.39c-61.051 0-110.51 49.457-110.51 110.51v496.7c0 61.043 49.453 110.5 110.51 110.5h720.39c61.016 0 110.5-49.457 110.5-110.5v-496.7c0-61.051-49.48-110.51-110.5-110.51zm-720.39 74.559h720.39c19.812 0 35.918 16.141 35.918 35.949v38.629l-792.26-0.003906v-38.629c0-19.805 16.121-35.945 35.949-35.945zm720.39 568.59h-720.39c-19.824 0-35.949-16.145-35.949-35.949v-327.57h792.26v327.57c0 19.801-16.109 35.949-35.918 35.949z"/>
  <path d="m296.7 778.69h120.54v33.254h-120.54z"/>
  <path d="m458.81 778.69h120.54v33.254h-120.54z"/>
  <path d="m620.92 778.69h120.54v33.254h-120.54z"/>
  <path d="m783.02 778.69h120.54v33.254h-120.54z"/>
 </g>
</svg>
