<?xml version="1.0" encoding="UTF-8"?>
<svg width="1200pt" height="1200pt" version="1.1" viewBox="0 0 1200 1200" xmlns="http://www.w3.org/2000/svg">
 <g>
  <path d="m830.7 1081.1c-5.3984 0-10.898-1.75-15.5-5.3984-150.75-119.3-315.35-259.7-360.35-416.15-19.051-66.25 19.352-135.6 85.602-154.7 66.25-18.949 135.65 19.398 154.7 85.602 26.602 92.449 207.2 235.4 275.2 289.2 10.852 8.5508 12.648 24.301 4.1016 35.102-8.5508 10.852-24.199 12.699-35.102 4.1016-129.15-102.2-264.9-219.55-292.25-314.6-11.449-39.75-53.148-62.699-92.852-51.352-39.699 11.449-62.75 53.102-51.352 92.801 40.898 142.2 198.65 276.25 343.3 390.75 10.852 8.5508 12.648 24.301 4.1016 35.102-4.8984 6.293-12.195 9.543-19.598 9.543z"/>
  <path d="m195.15 954.55c-10.648 0-20.551-6.8516-23.852-17.551-4.1484-13.199 3.1992-27.199 16.398-31.301 27.949-8.75 115.95-48.301 74.949-190.85-23.949-83.449-14.051-171.25 28-247.15 42.051-76 111.15-131.05 194.65-155.05 168.2-47.898 346.25 47.602 399.25 213.4 12.449 11.699 97.801 82.199 156.2 129.6 10.699 8.6992 12.352 24.449 3.6484 35.148-8.6484 10.75-24.449 12.398-35.148 3.6484-160.75-130.45-166.1-139.5-168.7-143.8-1.0508-1.75-1.8516-3.6016-2.4492-5.5-43.352-142.65-195.5-225.35-339.05-184.4-70.594 20.254-129.09 66.855-164.69 131.11-35.551 64.25-43.949 138.55-23.699 209.15 42.602 148.05-31.602 228.5-108.1 252.4-2.4023 0.75-4.9023 1.1523-7.4023 1.1523z"/>
  <path d="m275 1050c-10.648 0-20.5-6.8516-23.852-17.551-4.1484-13.148 3.1992-27.199 16.398-31.301 103.6-32.398 141.3-85.602 90.801-315.5-27.352-124.7 39.051-243.7 154.45-276.9 119.15-34.102 244.15 34.949 278.4 154.05 6.9492 24.148 38.699 70.699 224.25 217.6 10.852 8.5508 12.648 24.301 4.1016 35.148-8.5508 10.801-24.199 12.75-35.102 4.1016-204.85-162.1-231.55-208.95-241.3-242.95-26.648-92.602-123.65-146.4-216.6-119.8-89.699 25.801-141.05 119.55-119.4 218.1 51.449 234.4 20 328.75-124.75 373.95-2.3945 0.69531-4.9453 1.0469-7.3945 1.0469z"/>
  <path d="m900 1e3c-6.3984 0-12.801-2.4492-17.699-7.3008-9.1484-9.1484-29.25-24.398-52.5-42.051-89.551-67.949-239.45-181.65-278.85-318.75-3.8008-13.301 3.8516-27.102 17.102-30.949 13.449-3.8008 27.102 3.8516 30.949 17.102 34.801 121.1 176.4 228.5 261 292.7 25.75 19.551 46.102 35 57.648 46.551 9.75 9.75 9.75 25.602 0 35.352-4.8477 4.8984-11.25 7.3477-17.648 7.3477z"/>
  <path d="m525 1200c-0.55078 0-1.0508 0-1.6016-0.050781-13.75-0.85156-24.25-12.699-23.398-26.5 1.8516-28.949 15.199-173.45 100-173.45 62.352 0 99.898 51 124.75 84.75 6.6484 9 12.449 17.102 17.898 22.602 9.75 9.75 9.75 25.602 0 35.352s-25.602 9.75-35.352 0c-6.8984-6.8984-14.449-16.898-22.852-28.25-21.094-28.754-47.344-64.453-84.445-64.453-27.102 0-46.852 74.852-50.051 126.55-0.84766 13.25-11.848 23.449-24.949 23.449z"/>
  <path d="m375 1150c-10.551 0-20.352-6.6992-23.801-17.301-4.25-13.148 2.9492-27.199 16.051-31.5 63.199-20.551 105.25-151.75 83.898-218.6-4.1992-13.148 3.0508-27.199 16.199-31.398 13.148-4.3984 27.199 3.0508 31.398 16.199 26.551 83.051-19.852 250.15-116.1 281.4-2.4961 0.80469-5.0938 1.2031-7.6445 1.2031z"/>
  <path d="m175 650c-13.801 0-25-11.199-25-25 0-234.35 190.65-425 425-425 230.7 0 313.25 133.25 373.5 230.55 28.449 45.852 53 85.5 84.25 95.648 13.148 4.25 20.352 18.352 16.051 31.5-4.1992 13.102-18.25 20.398-31.5 16.051-48.699-15.801-77.699-62.648-111.3-116.9-57.102-92.152-128.15-206.85-331-206.85-206.8 0-375 168.2-375 375 0 13.801-11.199 25-25 25z"/>
  <path d="m200 825c-9.1992 0-18-5.0508-22.398-13.801-4.6016-9.25-27.602-56.801-27.602-86.199 0-13.801 11.199-25 25-25s25 11.199 25 25c0 13.051 13.352 45.801 22.352 63.801 6.1992 12.352 1.1484 27.352-11.199 33.551-3.5508 1.7969-7.3516 2.6484-11.152 2.6484z"/>
  <path d="m925 300c-8.4492 0-16.699-4.25-21.398-12.051-24.652-40.598-161.4-137.95-353.6-137.95-199.9 0-306.9 102.15-328.65 137.95-7.1016 11.852-22.5 15.551-34.301 8.4023-11.801-7.1523-15.602-22.5-8.4023-34.301 27.352-45.102 147.4-162.05 371.35-162.05 210.6 0 362.05 105.5 396.35 162.05 7.1992 11.801 3.3984 27.148-8.3984 34.352-4.0547 2.4492-8.5039 3.5977-12.953 3.5977z"/>
  <path d="m825 100c-2.6992 0-5.4492-0.44922-8.1484-1.3516-10.102-3.4492-19.699-7.0508-29.25-10.551-52.652-19.598-102.4-38.098-237.6-38.098-120.05 0-147.1 13.852-184.4 33-9.2031 4.6992-18.953 9.6992-30.402 14.801-12.551 5.6992-27.398 0-33.051-12.551-5.6484-12.602 0-27.398 12.551-33.051 10.551-4.75 19.5-9.3516 28-13.699 42-21.5 75.152-38.5 207.3-38.5 144.2 0 200.55 20.949 255.05 41.199 9.1992 3.3984 18.398 6.8516 28.102 10.199 13.051 4.5 20 18.699 15.5 31.75-3.6016 10.352-13.301 16.852-23.652 16.852z"/>
  <path d="m1025 450c-10.602 0-20.398-6.75-23.801-17.398-11.449-35.648-47.102-93.949-47.5-94.5-7.25-11.75-3.5508-27.148 8.1992-34.398 11.75-7.3008 27.148-3.6016 34.398 8.1992 1.6016 2.6016 39.25 64 52.5 105.5 4.1992 13.148-3.0508 27.199-16.199 31.398-2.5469 0.80078-5.0977 1.1992-7.5977 1.1992z"/>
 </g>
</svg>
