<?xml version="1.0" encoding="UTF-8"?>
<svg width="1200pt" height="1200pt" version="1.1" viewBox="0 0 1200 1200" xmlns="http://www.w3.org/2000/svg">
 <g>
  <path d="m604.8 1033.2-188.4-67.199c-10.801-3.6016-22.801 0-28.801 9.6016-6 9.6016-12 19.199-15.602 28.801-24 66 10.801 140.4 78 164.4s140.4-10.801 164.4-78c3.6016-9.6016 6-20.398 7.1992-32.398 0.003906-10.801-7.1992-21.602-16.797-25.203z"/>
  <path d="m998.4 990c2.3984-15.602 1.1992-31.199-4.8008-44.398 0-1.1992-44.398-114 34.801-336 56.398-156 12-303.6-116.4-398.4l9.6016-27.602c20.398-58.801-9.6016-123.6-68.398-144-58.801-20.398-123.6 9.6016-144 68.398l-9.6016 28.801c-159.6-9.6016-285.6 75.598-342 231.6-79.199 222-184.8 280.8-184.8 280.8-14.398 7.1992-26.398 18-33.602 31.199-1.1992 2.3984-2.3984 4.8008-3.6016 7.1992l-24 66c-7.1992 19.199 3.6016 40.801 22.801 46.801l792 284.4c19.199 7.1992 40.801-3.6016 46.801-22.801l24-66c0-1.1953 1.1992-3.5977 1.1992-5.9961z"/>
 </g>
</svg>
