<?xml version="1.0" encoding="UTF-8"?>
<svg width="1200pt" height="1200pt" version="1.1" viewBox="0 0 1200 1200" xmlns="http://www.w3.org/2000/svg">
 <g>
  <path d="m499.35 865.69c28.52 23.059 64.086 35.629 100.76 35.617 36.672-0.015626 72.23-12.613 100.73-35.691 20.711-16.988 38.953-36.785 54.195-58.816h-310.08c15.273 22.09 33.582 41.914 54.391 58.891z"/>
  <path d="m503.73 643.36c-0.015625-13.359-5.3359-26.164-14.789-35.602-9.457-9.4375-22.273-14.734-35.633-14.723-13.359 0.007813-26.168 5.3242-35.609 14.777-9.4414 9.4492-14.742 22.266-14.738 35.625 0.003906 13.359 5.3164 26.168 14.766 35.613 9.4453 9.4453 22.258 14.754 35.617 14.754 13.371-0.007813 26.191-5.3281 35.641-14.785 9.4492-9.4609 14.754-22.289 14.746-35.66z"/>
  <path d="m746.65 592.93c-13.379-0.015625-26.219 5.2852-35.691 14.738-9.4688 9.4531-14.797 22.281-14.805 35.664-0.011719 13.379 5.2969 26.219 14.754 35.684 9.4531 9.4688 22.285 14.789 35.668 14.797 13.379 0.003906 26.215-5.3086 35.68-14.77 9.4609-9.4609 14.781-22.293 14.781-35.676 0.003907-13.367-5.2969-26.195-14.746-35.652-9.4492-9.4609-22.27-14.777-35.641-14.785z"/>
  <path d="m960.4 501.27c-0.023438-95.617-37.988-187.31-105.56-254.96-67.57-67.648-159.23-105.72-254.84-105.85-42.848-0.097657-85.355 7.5547-125.48 22.59-68.984 25.684-128.46 71.848-170.45 132.3-41.992 60.457-64.492 132.31-64.473 205.92v18.691c-26.445 24.863-39.02 61.113-33.648 97.008l9.5156 64.301c3.2617 22.441 13.406 43.32 29.039 59.746 0.8125 2.7578 1.4453 5.5703 2.3125 8.3203v0.003906c24.5 79.266 70.465 150.21 132.8 204.96 62.336 54.754 138.62 91.18 220.38 105.24 81.781-14.09 158.07-50.523 220.44-105.27 62.371-54.742 108.39-125.67 132.96-204.93 0.8125-2.8125 1.4961-5.6875 2.293-8.5117 15.523-16.406 25.594-37.207 28.836-59.559l9.5156-64.301c5.3711-35.895-7.2031-72.145-33.648-97.004zm-82.598 224.8c-19.77 62.992-55.902 119.61-104.71 164.06-48.809 44.457-108.54 75.164-173.09 88.984-66.566-14.27-127.96-46.473-177.54-93.129-49.582-46.652-85.457-105.98-103.74-171.55l-0.13672-1.0117v-134.65c0-57.496 42.184-108.57 99.371-113.85l0.003906-0.003906c2.2227-0.21875 4.457-0.30469 6.6914-0.25 31.641 1.5625 62.953 7.1055 93.207 16.492 108.32 32.309 219.36 25.531 298.57 12.426l0.5-0.082032h0.003906c15.941-2.6523 32.246 1.8281 44.594 12.258 12.348 10.43 19.496 25.758 19.547 41.922 0.25391 68.961 0.35156 165.73 0.35156 165.73-1.1289 4.2891-2.2578 8.3594-3.6133 12.648z"/>
  <path d="m1009.5 17.09v76.023h97.434v97.434h76.023v-173.46z"/>
  <path d="m17.016 190.55h76.023v-97.434h97.582v-76.023h-173.61z"/>
  <path d="m93.039 1009.5h-76.023v173.46h173.61v-76.023h-97.582z"/>
  <path d="m1107 1106.9h-97.434v76.023h173.46v-173.46h-76.023z"/>
 </g>
</svg>
