<?xml version="1.0" encoding="utf-8"?>
<!-- Generator: Adobe Illustrator 22.1.0, SVG Export Plug-In . SVG Version: 6.00 Build 0)  -->
<svg version="1.1" id="Layer_5" xmlns="http://www.w3.org/2000/svg" xmlns:xlink="http://www.w3.org/1999/xlink" x="0px" y="0px"
	 viewBox="0 0 671 191" style="enable-background:new 0 0 671 191;" xml:space="preserve">
<style type="text/css">
	.st0{fill:#FFFFFF;}
</style>
<path class="st0" d="M277.4,121c-10.5,0-15.1-7.1-16.3-9.2v26.9h-6.3V69.9h5.7l0.5,8.8c0.6-1.1,5.8-9.8,17.4-9.8
	c13.2,0,21.5,11.1,21.5,26S290.6,121,277.4,121 M277.4,74.1c-9.9,0-16.5,9.5-16.5,20.8c0,11.2,6,20.8,15.9,20.8s16.5-9.5,16.5-20.8
	C293.3,83.7,287.3,74.1,277.4,74.1"/>
<path class="st0" d="M341.7,120c0,0-1.1-3.3-1.1-6.6c-3,3.9-8.3,7.6-16.5,7.6s-15.4-4.8-15.4-15.1c0-10.2,8.8-13.5,12.6-14.6
	c3.9-1.1,10.6-2.1,19-2.1v-3.8c0-8.3-5.8-11.2-12.4-11.2s-12,2.4-14.9,4.5l-2.5-4.8c3.7-2.3,9.9-4.8,17.1-4.8s11.4,2.1,14.1,4.4
	c2.6,2.3,5,5.9,5,13.6v23.1c0,4.9,1.1,7.7,2.2,9.9H341.7z M340.4,94c-2.8,0-9.8,0.6-13,1.1c-3.2,0.6-12.1,2.3-12.1,10.6
	c0,8.3,6,10.3,10.5,10.3c4.4,0,11.3-2.6,14.6-9.2V94z"/>
<path class="st0" d="M398.4,131c-2.8,3.8-8.8,8.2-19.3,8.2c-10.5,0-17.3-4.7-18.4-5.8l3.1-4.7c1.1,1.1,7.8,5.1,15.3,5.1
	s11.8-2.8,13.9-5.4c2.1-2.6,3.5-7.3,3.5-14.4v-4.4c-0.3,0.7-4.7,9.9-17.4,9.9s-20.9-10.4-20.9-25.3s9.9-25.2,22-25.2
	c12.1,0,15.8,8.6,16.3,9.8l1.1-8.8h5.2v41.3C402.8,122.2,401.1,127.2,398.4,131 M381.1,74.1c-9.7,0-16.3,9-16.3,20
	c0,11,6.1,20,15.6,20c9.7,0,16.3-9,16.3-20C396.7,83.1,390.7,74.1,381.1,74.1"/>
<path class="st0" d="M422.5,95.8c0,11.5,5.9,19.7,16.5,19.7c10.6,0,15.9-5.9,15.9-5.9l3.1,4.3c0,0-6.4,7.1-19.6,7.1
	c-13.2,0-22.5-9.8-22.5-26c0-16.3,9.9-26.1,22.5-26.1c12.7,0,20.7,9.8,20.7,23.5v3.3H422.5z M438.3,74.1c-10.8,0-15.2,9.6-15.7,16.7
	h30.2C452.8,82.6,448.9,74.1,438.3,74.1"/>
<polygon class="st0" points="504.3,120 485.2,94.2 478.1,101 478.1,120 471.8,120 471.8,48 478.1,48 478.1,94.2 502.1,70 510.3,70 
	489.4,90.1 512,120 "/>
<path class="st0" d="M525.1,57.6c-2.8,0-5.1-2.2-5.1-5s2.2-5.1,5-5.1s5.1,2.2,5.1,5S527.8,57.6,525.1,57.6 M521.9,70h6.3v50h-6.3V70
	z"/>
<path class="st0" d="M553.6,74.9V104c0,6,0.8,8.4,2.4,9.9c1.8,1.5,3.8,1.9,6,1.9s4.8-0.8,4.8-0.8l0.9,4.9c-1.6,0.6-4.9,1.1-7.7,1.1
	c-3.9,0-7.2-1.1-9.6-3.9c-2.5-2.8-3.2-6.6-3.2-13.2V74.9h-7.6v-4.9h7.6l0.9-14.3h5.4v14.3h14.7v4.9H553.6z"/>
<polygon class="st0" points="107,42 107,157 153,157 153,140 124,140 124,59 182,59 182,123 153,123 153,140 199,140 199,42 "/>
</svg>
