<?xml version="1.0" encoding="utf-8"?>
<!-- Generator: Adobe Illustrator 21.0.2, SVG Export Plug-In . SVG Version: 6.00 Build 0)  -->
<svg version="1.1" id="Layer_3" xmlns="http://www.w3.org/2000/svg" xmlns:xlink="http://www.w3.org/1999/xlink" x="0px" y="0px"
	 viewBox="0 0 671 186" style="enable-background:new 0 0 671 186;" xml:space="preserve">
<style type="text/css">
	.st0{fill:#2CB2D1;}
	.st1{fill:#EEEEEE;}
</style>
<g>
	<path class="st0" d="M388.9,78.6h-25.7v2.7c8.1,0,9.3,1.7,9.3,11.9v18.4c0,10.2-1.3,12.1-9.3,12.1c-6.2-0.9-10.4-4.2-16.1-10.5
		l-6.6-7.2c8.9-1.6,13.7-7.2,13.7-13.5c0-7.9-6.8-13.9-19.4-13.9h-25.3v2.7c8.1,0,9.3,1.7,9.3,11.9v18.4c0,10.2-1.3,12.1-9.3,12.1
		v2.7h28.6v-2.7c-8.1,0-9.3-1.9-9.3-12.1v-5.2h2.4l16,20h41.9c20.6,0,29.5-10.9,29.5-24C418.3,89.4,409.4,78.6,388.9,78.6z
		 M328.6,102.1V82.9h5.9c6.5,0,9.3,4.5,9.3,9.6c0,5-2.9,9.5-9.3,9.5H328.6z M389.3,122.1h-1c-5.2,0-5.9-1.3-5.9-7.9V82.9
		c0,0,6.3,0,6.9,0c15,0,17.7,10.9,17.7,19.4C407,111.1,404.2,122.1,389.3,122.1z"/>
	<path class="st0" d="M229.2,107.4l9.9-29.3c2.9-8.5,1.6-10.9-7.6-10.9v-2.9h27v2.9c-9.1,0-11.2,2.2-14.8,12.7L227.3,129h-1.9
		l-14.7-45l-15,45H194l-16-49.2c-3.5-10.5-5.8-12.7-14.1-12.7v-2.9h31.9v2.9c-8.5,0-10.8,2-7.8,10.9l9.6,29.3l14.5-43.1h2.7
		L229.2,107.4z"/>
	<path class="st0" d="M278.1,128.4c-15.8,0-28.8-11.6-28.8-25.9c0-14.1,12.9-25.7,28.8-25.7c15.8,0,28.8,11.7,28.8,25.7
		C306.9,116.7,293.9,128.4,278.1,128.4z M278.1,81.2c-13.2,0-17.8,11.9-17.8,21.3c0,9.5,4.6,21.3,17.8,21.3c13.4,0,18-11.8,18-21.3
		C296.1,93.1,291.5,81.2,278.1,81.2z"/>
	<path class="st1" d="M453.9,123.6v2.9h-32.9v-2.9c9.6,0,11.4-2.4,11.4-16.8v-23c0-14.4-1.7-16.7-11.4-16.7v-2.9h29.8
		c14.8,0,23,7.6,23,17.8c0,9.9-8.2,17.7-23,17.7h-8.2v7C442.5,121.2,444.2,123.6,453.9,123.6z M450.7,69.4h-8.2v25h8.2
		c8.1,0,11.8-5.6,11.8-12.4C462.5,75.2,458.7,69.4,450.7,69.4z"/>
	<path class="st1" d="M572.5,113l-0.7,2.6c-1.3,4.7-2.9,6.5-13.1,6.5h-2c-7.5,0-8.8-1.7-8.8-11.9v-6.6c11.2,0,12.1,1,12.1,8.5h2.7
		V90.6H560c0,7.5-0.9,8.5-12.1,8.5V82.9h7.9c10.2,0,11.8,1.7,13.1,6.5l0.7,2.7h2.3l-1-13.5h-42.3v2.7c8.1,0,9.3,1.7,9.3,11.9v18.4
		c0,9.3-1.1,11.7-7.4,12c-6-0.9-10.2-4.2-15.8-10.4l-6.6-7.2c8.9-1.6,13.7-7.2,13.7-13.5c0-7.9-6.8-13.9-19.4-13.9H477v2.7
		c8.1,0,9.3,1.7,9.3,11.9v18.4c0,10.2-1.3,12.1-9.3,12.1v2.7h28.6v-2.7c-8.1,0-9.3-1.9-9.3-12.1v-5.2h2.4l16,20h59.1l0.9-13.5H572.5
		z M496.3,102.1V82.9h5.9c6.5,0,9.3,4.5,9.3,9.6c0,5-2.9,9.5-9.3,9.5H496.3z"/>
	<path class="st1" d="M601.7,128.4c-5.8,0-10.8-3-12.9-4.9c-0.7,0.7-2,2.9-2.3,4.9h-2.7v-19.8h2.9c1.2,9.5,7.8,15.1,16.3,15.1
		c4.6,0,8.3-2.6,8.3-6.9c0-3.7-3.3-6.6-9.2-9.3l-8.2-3.9c-5.8-2.7-10.1-7.5-10.1-13.8c0-6.9,6.5-12.8,15.4-12.8
		c4.7,0,8.8,1.7,11.2,3.7c0.7-0.6,1.4-2.2,1.9-3.9h2.7v17h-3c-1-6.8-4.7-12.4-12.4-12.4c-4,0-7.8,2.3-7.8,5.9c0,3.7,3,5.8,9.9,8.9
		l7.9,3.9c6.9,3.3,9.6,8.6,9.6,12.9C619.2,122.1,611.3,128.4,601.7,128.4z"/>
	<path class="st1" d="M646,128.4c-5.8,0-10.8-3-12.9-4.9c-0.7,0.7-2,2.9-2.3,4.9H628v-19.8h2.9c1.2,9.5,7.8,15.1,16.3,15.1
		c4.6,0,8.3-2.6,8.3-6.9c0-3.7-3.3-6.6-9.2-9.3l-8.2-3.9c-5.8-2.7-10.1-7.5-10.1-13.8c0-6.9,6.5-12.8,15.4-12.8
		c4.7,0,8.8,1.7,11.2,3.7c0.7-0.6,1.4-2.2,1.9-3.9h2.7v17h-3c-1-6.8-4.7-12.4-12.4-12.4c-4,0-7.8,2.3-7.8,5.9c0,3.7,3,5.8,9.9,8.9
		l7.9,3.9c6.9,3.3,9.6,8.6,9.6,12.9C663.5,122.1,655.6,128.4,646,128.4z"/>
	<g>
		<path class="st1" d="M20.1,94.4c0,25.2,14.6,47,35.9,57.3L25.6,68.5C22.1,76.4,20.1,85.2,20.1,94.4z"/>
		<path class="st1" d="M126.7,91.2c0-7.9-2.8-13.3-5.2-17.6c-3.2-5.2-6.3-9.7-6.3-14.9c0-5.9,4.4-11.3,10.7-11.3c0.3,0,0.5,0,0.8,0
			c-11.3-10.4-26.4-16.7-43-16.7c-22.2,0-41.8,11.4-53.2,28.7c1.5,0,2.9,0.1,4.1,0.1c6.7,0,17-0.8,17-0.8c3.4-0.2,3.8,4.8,0.4,5.2
			c0,0-3.4,0.4-7.3,0.6l23.2,68.9l13.9-41.8l-9.9-27.2c-3.4-0.2-6.7-0.6-6.7-0.6c-3.4-0.2-3-5.4,0.4-5.2c0,0,10.5,0.8,16.8,0.8
			c6.7,0,17-0.8,17-0.8c3.4-0.2,3.8,4.8,0.4,5.2c0,0-3.5,0.4-7.3,0.6l23,68.4l6.3-21.2C124.6,103,126.7,96.6,126.7,91.2z"/>
		<path class="st1" d="M84.9,100l-19.1,55.5c5.7,1.7,11.7,2.6,18,2.6c7.4,0,14.5-1.3,21.1-3.6c-0.2-0.3-0.3-0.6-0.5-0.9L84.9,100z"
			/>
		<path class="st1" d="M139.6,63.9c0.3,2,0.4,4.2,0.4,6.5c0,6.5-1.2,13.7-4.8,22.8l-19.4,56.2c18.9-11,31.6-31.5,31.6-55
			C147.4,83.3,144.6,72.9,139.6,63.9z"/>
		<path class="st1" d="M83.7,20.2c-40.9,0-74.2,33.3-74.2,74.2c0,40.9,33.3,74.2,74.2,74.2c40.9,0,74.2-33.3,74.2-74.2
			C157.9,53.5,124.7,20.2,83.7,20.2z M83.7,165.2c-39,0-70.8-31.8-70.8-70.8c0-39,31.8-70.8,70.8-70.8c39,0,70.8,31.8,70.8,70.8
			C154.5,133.4,122.8,165.2,83.7,165.2z"/>
	</g>
</g>
</svg>
