<?xml version="1.0" encoding="utf-8"?>
<!-- Generator: Adobe Illustrator 24.1.2, SVG Export Plug-In . SVG Version: 6.00 Build 0)  -->
<svg version="1.1" id="Layer_1" xmlns="http://www.w3.org/2000/svg" xmlns:xlink="http://www.w3.org/1999/xlink" x="0px" y="0px"
	 viewBox="0 0 256 245" style="enable-background:new 0 0 256 245;" xml:space="preserve">
<style type="text/css">
	.st0{fill:#FFFFFF;}
</style>
<g>
	<path class="st0" d="M232.7,244.4h-41.5l2.9-34.9h-20.4l-2.9,34.9H85.1l-2.9-34.9H61.8l2.9,34.9H23.3L0,93.1L58.2,0h139.6L256,93.1
		L232.7,244.4z M186.2,46.5h-37.4l2.5,17.5h-46.5l2.5-17.5H69.8L46.5,93.1l11.6,93.1h139.6l11.6-93.1L186.2,46.5z M165.8,155.3
		c-3.2,0-5.8-9.7-5.8-21.6c0-12,2.6-21.6,5.8-21.6c3.2,0,5.8,9.7,5.8,21.6C171.6,145.6,169,155.3,165.8,155.3z M92.4,157.1
		c-3.2,0-5.8-9.7-5.8-21.6c0-12,2.6-21.6,5.8-21.6c3.2,0,5.8,9.7,5.8,21.6C98.2,147.4,95.6,157.1,92.4,157.1z"/>
</g>
</svg>
