<?xml version="1.0" encoding="utf-8"?>
<!-- Generator: Adobe Illustrator 23.0.1, SVG Export Plug-In . SVG Version: 6.00 Build 0)  -->
<svg version="1.1" id="Layer_1" xmlns="http://www.w3.org/2000/svg" xmlns:xlink="http://www.w3.org/1999/xlink" x="0px" y="0px"
	 viewBox="0 0 1600 628" style="enable-background:new 0 0 1600 628;" xml:space="preserve">
<style type="text/css">
	.st0{fill:#71BF49;}
	.st1{fill:#EFF2EB;}
	.st2{fill:#E45625;}
	.st3{fill:#EFE1E5;}
</style>
<g>
	<path class="st0" d="M102.8,483.2c5.9,3.9,16.3,7.9,26.3,7.9c14.5,0,21.3-7.3,21.3-16.3c0-9.5-5.7-14.7-20.4-20.2
		c-19.7-7-29-17.9-29-31.1c0-17.7,14.3-32.2,37.9-32.2c11.1,0,20.9,3.2,27,6.8l-5,14.5c-4.3-2.7-12.2-6.3-22.4-6.3
		c-11.8,0-18.4,6.8-18.4,15c0,9.1,6.6,13.1,20.9,18.6c19,7.3,28.8,16.8,28.8,33.1c0,19.3-15,32.9-41,32.9c-12,0-23.1-2.9-30.8-7.5
		L102.8,483.2z"/>
	<path class="st0" d="M206.4,452.3c0.5,27,17.7,38.1,37.6,38.1c14.3,0,22.9-2.5,30.4-5.7l3.4,14.3c-7,3.2-19,6.8-36.5,6.8
		c-33.8,0-54-22.2-54-55.3c0-33.1,19.5-59.2,51.5-59.2c35.8,0,45.3,31.5,45.3,51.7c0,4.1-0.5,7.3-0.7,9.3H206.4z M264.9,438
		c0.2-12.7-5.2-32.4-27.7-32.4c-20.2,0-29,18.6-30.6,32.4H264.9z"/>
	<path class="st0" d="M308.9,428.1c0-12.9-0.2-24-0.9-34.2h17.5l0.7,21.5h0.9c5-14.7,17-24,30.4-24c2.3,0,3.9,0.2,5.7,0.7v18.8
		c-2-0.5-4.1-0.7-6.8-0.7c-14.1,0-24,10.7-26.8,25.6c-0.5,2.7-0.9,5.9-0.9,9.3v58.5h-19.7V428.1z"/>
	<path class="st0" d="M396.4,393.8l21.5,61.7c3.6,10,6.6,19,8.8,28.1h0.7c2.5-9.1,5.7-18.1,9.3-28.1l21.3-61.7h20.9l-43.1,109.7h-19
		l-41.7-109.7H396.4z"/>
	<path class="st0" d="M519.9,363c0.2,6.8-4.8,12.2-12.7,12.2c-7,0-12-5.4-12-12.2c0-7,5.2-12.5,12.5-12.5
		C515.2,350.5,519.9,356,519.9,363z M497.7,503.6V393.8h19.9v109.7H497.7z"/>
	<path class="st0" d="M629,499.5c-5.2,2.7-16.8,6.3-31.5,6.3c-33.1,0-54.6-22.4-54.6-56c0-33.8,23.1-58.3,58.9-58.3
		c11.8,0,22.2,2.9,27.7,5.7l-4.5,15.4c-4.8-2.7-12.2-5.2-23.1-5.2c-25.2,0-38.8,18.6-38.8,41.5c0,25.4,16.3,41,38.1,41
		c11.3,0,18.8-2.9,24.5-5.4L629,499.5z"/>
	<path class="st0" d="M662.1,452.3c0.5,27,17.7,38.1,37.6,38.1c14.3,0,22.9-2.5,30.4-5.7l3.4,14.3c-7,3.2-19,6.8-36.5,6.8
		c-33.8,0-54-22.2-54-55.3c0-33.1,19.5-59.2,51.5-59.2c35.8,0,45.3,31.5,45.3,51.7c0,4.1-0.5,7.3-0.7,9.3H662.1z M720.6,438
		c0.2-12.7-5.2-32.4-27.7-32.4c-20.2,0-29,18.6-30.6,32.4H720.6z"/>
	<path class="st0" d="M772.5,393.8l14.5,55.8c3.2,12.2,6.1,23.6,8.2,34.9h0.7c2.5-11.1,6.1-22.9,9.7-34.7l17.9-56h16.8l17,54.9
		c4.1,13.1,7.3,24.7,9.7,35.8h0.7c1.8-11.1,4.8-22.7,8.4-35.6l15.6-55.1h19.7l-35.4,109.7H858l-16.8-52.4c-3.9-12.2-7-23.1-9.7-36
		H831c-2.7,13.1-6.1,24.5-10,36.3l-17.7,52.1h-18.1l-33.1-109.7H772.5z"/>
	<path class="st0" d="M1028.4,447.8c0,40.6-28.1,58.3-54.6,58.3c-29.7,0-52.6-21.8-52.6-56.4c0-36.7,24-58.3,54.4-58.3
		C1007.1,391.3,1028.4,414.2,1028.4,447.8z M941.4,448.9c0,24,13.8,42.2,33.3,42.2c19,0,33.3-17.9,33.3-42.6
		c0-18.6-9.3-42.2-32.9-42.2C951.6,406.3,941.4,428.1,941.4,448.9z"/>
	<path class="st0" d="M1053.6,428.1c0-12.9-0.2-24-0.9-34.2h17.5l0.7,21.5h0.9c5-14.7,17-24,30.4-24c2.3,0,3.9,0.2,5.7,0.7v18.8
		c-2-0.5-4.1-0.7-6.8-0.7c-14.1,0-24,10.7-26.8,25.6c-0.5,2.7-0.9,5.9-0.9,9.3v58.5h-19.7V428.1z"/>
	<path class="st0" d="M1148.4,444.2h0.5c2.7-3.9,6.6-8.6,9.7-12.5l32.2-37.9h24l-42.4,45.1l48.3,64.6h-24.3l-37.9-52.6l-10.2,11.3
		v41.3h-19.7v-161h19.7V444.2z"/>
	<path class="st0" d="M1246.1,452.3c0.5,27,17.7,38.1,37.6,38.1c14.3,0,22.9-2.5,30.4-5.7l3.4,14.3c-7,3.2-19,6.8-36.5,6.8
		c-33.8,0-54-22.2-54-55.3c0-33.1,19.5-59.2,51.5-59.2c35.8,0,45.3,31.5,45.3,51.7c0,4.1-0.5,7.3-0.7,9.3H1246.1z M1304.6,438
		c0.2-12.7-5.2-32.4-27.7-32.4c-20.2,0-29,18.6-30.6,32.4H1304.6z"/>
	<path class="st1" d="M1341.1,491.8c0-8.4,5.7-14.3,13.6-14.3s13.4,5.9,13.4,14.3c0,8.2-5.2,14.3-13.6,14.3
		C1346.5,506,1341.1,499.9,1341.1,491.8z"/>
	<path class="st2" d="M1392.7,428.1c0-12.9-0.2-24-0.9-34.2h17.5l0.7,21.5h0.9c5-14.7,17-24,30.4-24c2.3,0,3.9,0.2,5.7,0.7v18.8
		c-2-0.5-4.1-0.7-6.8-0.7c-14.1,0-24,10.7-26.8,25.6c-0.5,2.7-0.9,5.9-0.9,9.3v58.5h-19.7V428.1z"/>
	<path class="st2" d="M1464.2,483.2c5.9,3.9,16.3,7.9,26.3,7.9c14.5,0,21.3-7.3,21.3-16.3c0-9.5-5.7-14.7-20.4-20.2
		c-19.7-7-29-17.9-29-31.1c0-17.7,14.3-32.2,37.9-32.2c11.1,0,20.9,3.2,27,6.8l-5,14.5c-4.3-2.7-12.2-6.3-22.4-6.3
		c-11.8,0-18.4,6.8-18.4,15c0,9.1,6.6,13.1,20.9,18.6c19,7.3,28.8,16.8,28.8,33.1c0,19.3-15,32.9-41,32.9c-12,0-23.1-2.9-30.8-7.5
		L1464.2,483.2z"/>
</g>
<path class="st3" d="M720.9,164.6c-1.3,0.4-2.5,0.6-3.6,0.6c-4,0-6-1.7-6-6.7v-37.6c0-19.8-15.7-29.4-34.4-29.4
	c-14.2,0-21.9,1.7-37.1,7.9l-3.4,19.9l19.8,2.1l2.8-9.8c4-2.1,8.1-2.5,13.3-2.5c14,0,14.2,10.6,14.2,19.4v2.9
	c-4.4-0.6-9.4-0.8-14.2-0.8c-19.8,0-40.3,5-40.3,26.3c0,18,14.2,24.8,26.7,24.8c14,0,22.8-8.4,27.8-17.3c1.1,10.6,7.5,17.3,19,17.3
	c5.4,0,10.9-1.5,15.5-4L720.9,164.6z M667.7,164c-7.5,0-10.2-4.4-10.2-10c0-9.4,7.7-11.9,16.5-11.9c4,0,8.4,0.6,12.5,1.1
	C685.9,157.7,676.5,164,667.7,164z M634.5,47.7L597,179.8h-24.4l37.4-132.1H634.5z M584.2,47.7l-37.4,132.1h-24.4l37.4-132.1
	L584.2,47.7L584.2,47.7z M480.2,93.2h25.9v31.1h-25.9V93.2z M480.2,148.7h25.9v31.1h-25.9V148.7z M442.5,147.5l19.6,1.9l-5.4,30.3
	h-75.6l-2.5-13l47.6-54.7h-27.1l-3.8,13.4l-17.9-1.9l3.1-30.3h76l1.9,13l-48,54.7h28L442.5,147.5z M318.5,91.5
	c-31.1,0-46.5,20.9-46.5,46.3c0,27.6,18.4,43.9,45.1,43.9c27.6,0,47.6-17.5,47.6-45.1C364.8,112.4,349.6,91.5,318.5,91.5z
	 M317.9,162.7c-13.4,0-20.3-11.5-20.3-26.5c0-16.3,7.9-25.7,20.6-25.7c11.7,0,21.1,7.9,21.1,25.3
	C339.2,152.3,330.8,162.7,317.9,162.7z M249.7,160.9h11.5v18.8H225V131c0-15-5-20.7-14.8-20.7c-11.9,0-16.7,8.4-16.7,20.6v30.1H205
	v18.8h-36.3V131c0-15-5-20.7-14.8-20.7c-11.9,0-16.7,8.4-16.7,20.6v30.1h16.5v18.8H101v-18.8h11.5v-49H101V93.2h36.3v13
	c5.2-9.2,14.2-14.8,26.3-14.8c12.5,0,24,6,28.2,18.6c4.8-11.5,14.6-18.6,28.2-18.6c15.5,0,29.8,9.4,29.8,29.9L249.7,160.9
	L249.7,160.9z"/>
</svg>
